<svg xmlns="http://www.w3.org/2000/svg" xmlns:xlink="http://www.w3.org/1999/xlink" width="1920" height="7274" viewBox="0 0 1920 7274">
  <defs>
    <clipPath id="clip-path">
      <rect id="Retângulo_5" data-name="Retângulo 5" width="1920" height="7274" transform="translate(4419)" fill="#f0f2ef"/>
    </clipPath>
  </defs>
  <g id="Grupo_de_máscara_1" data-name="Grupo de máscara 1" transform="translate(-4419)" clip-path="url(#clip-path)">
    <g id="Grupo_6" data-name="Grupo 6">
      <rect id="Retângulo_4" data-name="Retângulo 4" width="1920" height="7276" transform="translate(4419 -2)" fill="#f0f2ef"/>
      <path id="Caminho_13" data-name="Caminho 13" d="M116.315,156.692c.481,94.816,82.662,147.163,92.327,207.2,12.211,27.578,4.851,83.262-36,132.856-.429.521-.861,1.042-1.418,1.708-67.676,76.454-154.2,135.5-154.2,135.5l1.018,817.037s31.409,17.682,67.2,77.583c18.821,56.532-14.255,98.082-15.388,119.331a435.269,435.269,0,0,1-51.807,56.962l.481,305.608S90.705,2071.982,212.7,2112.79c72.222,24.158,125.566,38.9,192.881,49.691,78.341,14.483,104.453,14.722,169.237,20.489,69.271,6,159.917,5.463,242.168,1.624,118.211-5.518,103.969-6.606,222.29-17.581,53.6-4.972,142.539-17.317,222.828-31.87,96.508-17.494,62.023-8.732,181.6-34.836s177.564-39.534,296.652-70.834,197.272-55.388,197.272-55.388l-.21-1751.037s-76.918-14.785-153.892-30.384c-72.178-13.54-157.775-36.06-251.051-72.321C1322.866,38.857,1095.745-62.081,1095.745-62.081L215.92-60.065S115.834,61.876,116.315,156.692Z" transform="translate(4401 61)" fill="#9e0059" stroke="#9e0059" stroke-width="1" opacity="0.969"/>
      <path id="Caminho_14" data-name="Caminho 14" d="M116.554,152.479c.481,94.816,82.423,147.376,92.088,207.412,12.211,27.578,4.851,87.262-36,136.856-.429.521-.861,1.042-1.418,1.708-67.676,76.454-172.2,135.5-172.2,135.5L.045,1447.991s50.117,38.287,78,80.015c30.482,53.079,8.77,93.994-8.187,119.9C43.947,1681.987.048,1704.866.048,1704.866l.481,321.608S90.705,2103.982,212.7,2144.79c72.222,24.158,125.566,38.9,192.881,49.691,78.341,14.483,104.453,13.722,169.237,19.489,69.271,6,159.917,5.463,242.168,1.624,118.211-5.518,103.969-7.606,222.29-18.581,53.6-4.972,142.539-18.317,222.828-32.87,96.508-17.494,62.023-9.732,181.6-35.836s177.564-40.534,296.652-71.834,179.287-50.61,179.287-50.61l-.224-1723.816s-58.918-10.785-135.892-26.384c-72.178-13.54-157.775-36.06-251.051-72.321C1322.866,101.857,1095.745-3.081,1095.745-3.081L178.144-.774S116.073,57.663,116.554,152.479Z" transform="translate(4419.973 1.081)" fill="#e39dc4" stroke="#e39dc4" stroke-width="1"/>
      <g id="Grupo_5" data-name="Grupo 5" transform="translate(4420.47 -0.042)">
        <path id="Caminho_3" data-name="Caminho 3" d="M1920.928,253.163c-71.385-7.31-130.511-13.181-260.684-32.981-70.149-11.271-137.218-24.391-200.856-38.111-50.111-10.8-76.865-18.224-122.012-31.07-50.422-14.114-112.682-35.354-210.892-77.231S943.77-.822,943.77-.822" fill="none" stroke="#a69f98" stroke-width="3"/>
        <path id="Caminho_4" data-name="Caminho 4" d="M260.115.678s-24.54,21.577-40.8,49.518c-12.318,20.964-23.305,49.443-24,80.43-1.5,43.308,11.982,96.073,27.594,138.168,10.013,29.994,12.735,34.388,28.787,79.363,5.442,15.246,4.008,44.026-2.639,62.122-8.722,24.1-23.48,47.62-53.832,78.175-11.989,12.069-35.2,32.377-79.838,61.823-22.4,14.183-41.582,25.529-63.6,37.116C21.578,603.605-3.247,615.223-3.247,615.223l.357,700.425s61.042,46.575,95.12,104.4c27.448,49.166,28.281,78.117,30.285,103.965.264,51.1-12.769,86.627-24.189,115.079-7.847,17.32-23.516,49.683-43.941,79.838-26.578,40.673-57.861,76.945-57.861,76.945l.491,207.057s19.141,39.283,72.742,82.443c25.619,20.736,48.26,34.6,78.972,49.62,34.8,16.463,50.617,22.931,98.383,37.495,21.256,6.481,69.4,17.977,126.622,24.5,65.526,7.2,83.994,6.452,126.536,7.9,38.31.955,65.271.372,106.426-.227,39.976-1.181,80.029-2.654,105.079-4.554,31.082-1.859,75.449-5.224,138.016-10.949,39.307-3.946,86.122-9.893,150.9-17.577,78.05-9.625,152.806-21.63,231.134-34.782,104.222-18.087,189-36.3,189-36.3s75.987-17.086,201.657-46.328,299.408-71.7,299.408-71.7L1927.53-3.28,273.628-9.056S288.8-32.176,260.115.678Z" fill="none" stroke="#a69f98" stroke-width="3"/>
      </g>
      <path id="Caminho_15" data-name="Caminho 15" d="M1959.716,3432.633a519.229,519.229,0,0,0,62.322-29.944c30.716-17.666,58.982-27.609,73.078-33.734s64.626-21.523,97.868-29.415,137.451-7.718,219.914,1.572,69.247,10.528,125.237,16.69,75.72,12.794,150.854,6.338,93.174-12.5,144.2-25.493,70.888-20.8,122.858-39.912,98.677-33.888,98.677-33.888l257.138-85.559s204.442-25.332,284.321-10.374,133.784,32.65,180.46,52.828c16.012,7.974,39.245,17.681,76.771,42.346s80.416,58.5,80.416,58.5l2.026,792.252s-67.2,77.149-90.109,171.313-22.286,141.519-12.936,202.191,22.768,74.924,33.23,130-14.745,81.9-39.157,106.912-34.873,34.385-38.071,104.054-.227,88.507,4.184,130.419,38.432,58.08,64.012,87.367,47.8,30.524,47.8,30.524l29.286,836s-35.593,20.714-51.8,42.5-36.243,51.654-34.044,114.876,12.752,88.1,15.954,129.968,4.088,76.649-22.563,127.564-82.583,82.76-131.8,117.563-65.764,42.771-105.2,85.321-44.285,73.732-56.963,92.948c-5.528,8.378-63.127,76.854-201.314,106.821-136.041,15.431-237.378-34.332-465.538-30.734s-307.142,21.245-387.775,27.369c-38.333,2.911-126.51,29.817-155.9,30.354-117.723,8.568-177.9,2.865-211.052-6.418-66.656-15.408-104.357-48.426-117.155-62.485-40.71-35.292-80.818-123.95-80.818-123.95l-9.476-451.216s46.9-85.814,72.01-154.2,31.371-91,31.742-176.019c-.981-31.029-10.82-79.475-39.587-131.262-31.457-61.537-76.813-106.739-76.813-106.739l10.476-898.906s42.377-81.25,63.341-163.76,21.073-137.1,15.7-177.912c-2.656-20.161-9.237-62.471-30.459-118.11s-49.4-102.442-49.4-102.442Z" transform="translate(2459.135 7)" fill="#9e0059"/>
      <path id="Caminho_16" data-name="Caminho 16" d="M2012.716,3440.633s37.762-10.371,59.322-21.944,33.23-19.787,73.078-38.734,64.626-27.523,97.868-35.415,87.451-12.718,169.914-3.428,69.247,10.528,125.237,16.69,75.72,12.794,150.854,6.338,93.174-12.5,144.2-25.493,70.888-20.8,122.858-39.912,98.677-33.888,98.677-33.888l257.138-85.559s197.584-17.683,284.321-10.374,133.784,26.65,180.46,46.828c16.012,7.974,39.245,19.681,76.771,44.346s80.416,62.5,80.416,62.5l1.026,787.252s-66.2,82.149-89.109,176.313-21.286,141.519-11.936,202.191,21.768,74.924,32.23,130-14.745,81.9-39.157,106.912-40.432,54.233-34.307,101.042,46.823,122.6,46.823,122.6,23.688,49.22,49.269,78.507,46.136,39.216,46.136,39.216l-.714,847s-35.593,20.714-51.8,42.5-36.243,51.654-34.044,114.876,12.752,88.1,15.954,129.968,5.99,72.241-16.563,127.564-87.8,117.563-87.8,117.563-56.907,53.7-96.345,96.246-43.208,67.834-55.886,87.05c-5.528,8.378-45.032,94.03-257.089,118.083-136.041,15.431-242.738-33.7-470.9-30.1s-361.108,38.368-441.742,44.492c-38.333,2.911-71.342,5.772-100.734,6.309-65.783,3.566-99.016-3.443-131.052-10.418a225.48,225.48,0,0,1-117.155-68.485c-40.71-35.292-80.818-139.95-80.818-139.95l.524-435.216s46.724-88.316,69.01-154.2,32.13-100.521,29.742-176.019c-.981-31.029-16.437-87.93-38.587-131.262-31.457-61.537-72.813-106.739-72.813-106.739l10.476-898.906s39.377-81.25,60.341-163.76,21.073-137.1,15.7-177.912a495.774,495.774,0,0,0-29.459-118.11,874.928,874.928,0,0,0-47.4-102.442Z" transform="translate(2404.007)" fill="#e39dc4"/>
      <path id="Caminho_17" data-name="Caminho 17" d="M1.43,3465.76c23.488-5.694,38.216-7.482,74.873-21.395,25.816-10.245,38.061-16.432,67.775-42.417,28.25-23.706,47.049-31.651,68.3-40.112,19.905-7.926,44.457-14.879,74.652-21.486a688.675,688.675,0,0,1,84.883-12.775c51.645-3.816,116.881,0,116.881,0s44.565,4.113,87.119,9.932,42.34,7.04,71.4,10.455,41.948.578,62.871,0c8.16-.225,55.245-4.633,104.016-14.311,25.981-5.155,28.438-.577,161.561-38.331s336.939-104.213,412.033-120.653,136.663-19.422,192.806-21a559.271,559.271,0,0,1,133.764,27.243,491.593,491.593,0,0,1,53.312,20.977,559.6,559.6,0,0,1,54.041,29.371,386.044,386.044,0,0,1,45.551,32.725,626.413,626.413,0,0,1,56.694,54.4l1.018,890.454s-19.574,35.4-47.922,83.956c-10.715,18.355-33.54,53.292-55.548,87.967-8.35,15.366-19.041,30.38-30.882,59.112-8.043,20.528-12.9,29.9-20.076,58.144-4.308,19.442-12.311,47.059-7.848,106.77,3.493,35.983,13.112,75.665,34.218,119.406,9.194,22.063,19.411,39.735,30.548,61.332,14.409,27.941,29.452,57.171,37.068,85.007,5.9,21.552,2.372,51.476-2.358,78.194-5.947,33.593-10.058,37.084-15.921,69.857-1.155,20.113-1.083,27.979,5.75,49.851,4.71,15.249,13.487,31.624,21.548,47.64,8.476,16.65,18.919,33.489,28.31,48.012a310.3,310.3,0,0,0,18.947,25.075l3.561,721.766s-23.5,20.791-45.027,44.687a447.6,447.6,0,0,0-48.717,64.1c-11.522,21.39-21.232,36.985-27.69,67.311a201.352,201.352,0,0,0-4.777,44.334c.116,12.976.878,26.831,5.16,55.781,5.062,34.2,13.652,73.276,10.153,126.015-1.6,24.154-10.04,61.155-23.357,94.5-15.575,39-17.343,42.321-38.214,75.792-11.813,18.945-22.473,34.512-37.264,56.331-17.866,24.562-27.354,38.938-44.014,64.8-43.443,65.24-52.962,81.018-80.6,136.039s-50.892,99.676-50.892,99.676-91.175,74.774-334.916,15.365c-87.99-21.447-180.008-78.345-296.433-101.566-204.977-40.883-422.966-40.257-466.965-39.417-47.422,1.069-79.068,3.153-132.343,9.854s-93.505,14.06-127.805,4.289c-18.488-5.267-42.706-16.39-64.237-33.53-18.116-14.421-34.746-32.97-50.421-53.628-18.625-24.557-34.473-54.388-47.593-83.013C9.167,6538.48,1.32,6518.2-5.188,6504.12c-.236-.47,1.9-237.288,1.9-237.288s16.505-43.449,30.427-81.172,7.137-16.238,26.261-69.966c5.909-16.6,13.47-36.472,20.466-56.636,15.42-44.443,12.616-37.774,29.768-88.31,7.746-26.492,17.924-63.334,26.727-106.34,4.211-22.3,6.521-40.92,8.056-56.778,2.315-23.907,3.25-20.265-.614-59.433-3.881-15.326-6.173-25.524-22.3-62.628-16.812-33.424-22.574-41.417-39.778-68.992S-4.514,5504.7-4.514,5504.7l-.018-749.266s17.24-40.629,40.781-111.149c10.1-30.253,24.695-80.891,33.5-111.06,6.656-25.323,8.183-31.265,11.283-62.718.012-14.031-2.874-47.589-11.678-78.7C58,4351.678,56,4350.88,41.362,4315.622S-13.588,4214.93-13.588,4214.93l2.825-750.786S-22.057,3471.455,1.43,3465.76Z" transform="translate(4419)" fill="none" stroke="#a69f98" stroke-width="3" opacity="0.988"/>
    </g>
  </g>
</svg>
