<?xml version="1.0" encoding="utf-8"?>
<!-- Generator: Adobe Illustrator 25.3.1, SVG Export Plug-In . SVG Version: 6.00 Build 0)  -->
<svg version="1.1" id="Camada_1" xmlns="http://www.w3.org/2000/svg" xmlns:xlink="http://www.w3.org/1999/xlink" x="0px" y="0px"
	 viewBox="0 0 698.5 489" style="enable-background:new 0 0 698.5 489;" xml:space="preserve">
<style type="text/css">
	.st0{fill:#EF91C5;}
	.st1{fill:#9E0059;}
	.st2{fill:#E864A8;}
	.st3{fill:#BA377B;}
	.st4{fill:none;stroke:#E286BD;stroke-miterlimit:10;}
	.st5{fill:none;}
	.st6{fill:none;stroke:#E05CA4;stroke-miterlimit:10;}
	.st7{enable-background:new    ;}
	.st8{fill:#FFFFFF;}
</style>
<g transform="translate(-4688.5 -3134.5)">
	<g>
		
			<image style="overflow:visible;opacity:0.2;" width="223" height="159" xlink:href="6330E2BADFAE04EB.png"  transform="matrix(1 0 0 1 4704.5 3147.5)">
		</image>
		<g>
			<g>
				<g transform="matrix(1, 0, 0, 1, 4688.5, 3134.5)">
					<rect x="22.5" y="19.5" class="st0" width="204" height="140"/>
				</g>
				<g transform="matrix(1, 0, 0, 1, 4688.5, 3134.5)">
					<rect x="22.5" y="19.5" class="st0" width="204" height="140"/>
				</g>
			</g>
		</g>
	</g>
	<g>
		<g transform="matrix(1, 0, 0, 1, 4688.5, 3134.5)">
			<rect x="22.5" y="323.5" class="st1" width="204" height="140"/>
		</g>
		<g transform="matrix(1, 0, 0, 1, 4688.5, 3134.5)">
			
				<image style="overflow:visible;opacity:0.2;" width="223" height="159" xlink:href="6330E2BADFAE04E9.png"  transform="matrix(1 0 0 1 16 311)">
			</image>
			<g>
				<g>
					<rect x="22.5" y="323.5" class="st1" width="204" height="140"/>
				</g>
			</g>
		</g>
	</g>
	<g>
		<g transform="matrix(1, 0, 0, 1, 4688.5, 3134.5)">
			<rect x="462.5" y="19.5" class="st2" width="204" height="140"/>
		</g>
		<g transform="matrix(1, 0, 0, 1, 4688.5, 3134.5)">
			
				<image style="overflow:visible;opacity:0.2;" width="223" height="159" xlink:href="6330E2BADFAE04EF.png"  transform="matrix(1 0 0 1 450 13)">
			</image>
			<g>
				<g>
					<rect x="462.5" y="19.5" class="st2" width="204" height="140"/>
				</g>
			</g>
		</g>
	</g>
	<g>
		<g transform="matrix(1, 0, 0, 1, 4688.5, 3134.5)">
			<rect x="462.5" y="323.5" class="st3" width="204" height="140"/>
		</g>
		<g transform="matrix(1, 0, 0, 1, 4688.5, 3134.5)">
			
				<image style="overflow:visible;opacity:0.2;" width="223" height="159" xlink:href="6330E2BADFAE04E8.png"  transform="matrix(1 0 0 1 450 311)">
			</image>
			<g>
				<g>
					<rect x="462.5" y="323.5" class="st3" width="204" height="140"/>
				</g>
			</g>
		</g>
	</g>
	<g>
		<g transform="matrix(1, 0, 0, 1, 4688.5, 3134.5)">
			<path class="st0" d="M337.5,39.5v195h-195c0,0-2.7-73.4,56.6-135.1S337.5,39.5,337.5,39.5z"/>
		</g>
		<path class="st0" d="M5026,3174v195h-195c0,0-2.7-73.4,56.6-135.1S5026,3174,5026,3174z"/>
		<g transform="matrix(1, 0, 0, 1, 4688.5, 3134.5)">
			<path class="st0" d="M337.5,39.5v195h-195c0,0-2.7-73.4,56.6-135.1S337.5,39.5,337.5,39.5z"/>
		</g>
		<g>
			
				<image style="overflow:visible;opacity:0.2;" width="226" height="226" xlink:href="6330E2BADFAE04E6.png"  transform="matrix(1 0 0 1 4809.5 3152.5)">
			</image>
			<g>
				<path class="st0" d="M5026,3174v195h-195c0,0-2.7-73.4,56.6-135.1S5026,3174,5026,3174z"/>
				<path class="st4" d="M5026,3174v195h-195c0,0-2.7-73.4,56.6-135.1S5026,3174,5026,3174z"/>
			</g>
		</g>
	</g>
	<g>
		<g transform="matrix(1, 0, 0, 1, 4688.5, 3134.5)">
			<path class="st1" d="M337.3,443.4v-195h-195c0,0-2.7,73.4,56.6,135.1S337.3,443.4,337.3,443.4z"/>
		</g>
		<path class="st1" d="M5025.8,3577.9v-195h-195c0,0-2.7,73.4,56.6,135.1C4946.7,3579.7,5025.8,3577.9,5025.8,3577.9z"/>
		<g transform="matrix(1, 0, 0, 1, 4688.5, 3134.5)">
			
				<image style="overflow:visible;opacity:0.2;" width="226" height="226" xlink:href="6330E2BADFAE04E7.png"  transform="matrix(1 0 0 1 121 239)">
			</image>
			<g>
				<g>
					<path class="st1" d="M337.3,443.4v-195h-195c0,0-2.7,73.4,56.6,135.1S337.3,443.4,337.3,443.4z"/>
				</g>
			</g>
		</g>
		<path class="st5" d="M5025.8,3577.9v-195h-195c0,0-2.7,73.4,56.6,135.1C4946.7,3579.7,5025.8,3577.9,5025.8,3577.9z"/>
	</g>
	<g>
		<g transform="matrix(1, 0, 0, 1, 4688.5, 3134.5)">
			<path class="st3" d="M351.3,443.4v-195h195c0,0,2.7,73.4-56.6,135.1S351.3,443.4,351.3,443.4z"/>
		</g>
		<path class="st3" d="M5039.8,3577.9v-195h195c0,0,2.7,73.4-56.6,135.1C5118.9,3579.7,5039.8,3577.9,5039.8,3577.9z"/>
		<g transform="matrix(1, 0, 0, 1, 4688.5, 3134.5)">
			<path class="st3" d="M351.3,443.4v-195h195c0,0,2.7,73.4-56.6,135.1S351.3,443.4,351.3,443.4z"/>
		</g>
		<g>
			
				<image style="overflow:visible;opacity:0.2;" width="226" height="226" xlink:href="6330E2BADFAE04F7.png"  transform="matrix(1 0 0 1 5030.5 3373.5)">
			</image>
			<g>
				<path class="st3" d="M5039.8,3577.9v-195h195c0,0,2.7,73.4-56.6,135.1C5118.9,3579.7,5039.8,3577.9,5039.8,3577.9z"/>
			</g>
		</g>
	</g>
	<g>
		<g transform="matrix(1, 0, 0, 1, 4688.5, 3134.5)">
			<path class="st2" d="M351.5,39.5v195h195c0,0,2.7-73.4-56.6-135.1S351.5,39.5,351.5,39.5z"/>
		</g>
		<path class="st2" d="M5040,3174v195h195c0,0,2.7-73.4-56.6-135.1C5119.1,3172.2,5040,3174,5040,3174z"/>
		<g transform="matrix(1, 0, 0, 1, 4688.5, 3134.5)">
			<g>
				
					<image style="overflow:visible;opacity:0.2;" width="227" height="227" xlink:href="6330E2BADFAE04F9.png"  transform="matrix(1 0 0 1 341 29)">
				</image>
				<g>
					<path class="st2" d="M351.5,39.5v195h195c0,0,2.7-73.4-56.6-135.1S351.5,39.5,351.5,39.5z"/>
					<path class="st6" d="M351.5,39.5v195h195c0,0,2.7-73.4-56.6-135.1S351.5,39.5,351.5,39.5z"/>
				</g>
			</g>
		</g>
		<path class="st5" d="M5040,3174v195h195c0,0,2.7-73.4-56.6-135.1C5119.1,3172.2,5040,3174,5040,3174z"/>
	</g>
	<g transform="translate(80)">
		<g class="st7">
			<path class="st8" d="M4674.8,3217v-8.8l-2.2,1l-0.9-1.7l3.9-1.8h1.5v11.3H4674.8z"/>
			<path class="st8" d="M4679.1,3216.6c-0.3-0.3-0.4-0.6-0.4-0.9c0-0.4,0.1-0.7,0.4-1c0.3-0.3,0.6-0.4,1-0.4c0.4,0,0.7,0.1,0.9,0.4
				c0.2,0.2,0.4,0.6,0.4,0.9c0,0.4-0.1,0.7-0.4,1c-0.2,0.3-0.5,0.4-0.9,0.4C4679.7,3217,4679.3,3216.9,4679.1,3216.6z"/>
			<path class="st8" d="M4693.3,3203.4l5.3,13.5l-2.2,0.3l-1.3-3.6h-5.4l-1.3,3.4h-2.2l5.2-13.6H4693.3z M4692.3,3206.4l-2,5.3h4
				L4692.3,3206.4z"/>
			<path class="st8" d="M4700.3,3217v-13.6h4.1c1,0,1.9,0.1,2.7,0.4s1.4,0.7,1.9,1.4c0.5,0.6,0.7,1.5,0.7,2.5c0,0.8-0.1,1.4-0.5,2
				c-0.3,0.6-0.7,1-1.2,1.4c-0.5,0.4-1.1,0.6-1.7,0.8c-0.6,0.2-1.3,0.3-2,0.3h-1.7v4.9H4700.3z M4702.5,3205.3v5h1.8
				c0.6,0,1.1-0.1,1.5-0.2c0.4-0.2,0.8-0.4,1-0.8c0.3-0.4,0.4-0.8,0.4-1.4c0-0.6-0.1-1.1-0.4-1.5c-0.2-0.4-0.6-0.6-1-0.8
				c-0.4-0.1-1-0.2-1.6-0.2H4702.5z"/>
			<path class="st8" d="M4715.7,3203.4c1,0,1.9,0.1,2.7,0.4s1.4,0.7,1.9,1.3c0.5,0.6,0.7,1.4,0.7,2.3c0,0.9-0.2,1.6-0.7,2.2
				s-1,1.1-1.7,1.4l3.4,5.9h-2.4l-3-5.3c-0.2,0-0.4,0-0.6,0c-0.2,0-0.5,0-0.6,0h-1.5v5.3h-2.2v-13.6H4715.7z M4713.9,3205.3v4.6h1.8
				c0.6,0,1.1-0.1,1.5-0.2c0.4-0.2,0.8-0.4,1.1-0.7s0.4-0.8,0.4-1.3c0-0.6-0.1-1-0.4-1.4c-0.2-0.3-0.6-0.6-1-0.7
				c-0.4-0.1-1-0.2-1.6-0.2H4713.9z"/>
			<path class="st8" d="M4723.7,3217v-13.6h7.9l0.3,1.7h-6v4.1h4.6l0.3,1.8h-4.9v4.3h6.5l0.3,1.7H4723.7z"/>
			<path class="st8" d="M4734.6,3217v-13.6h2.1l5.8,8.2l0.9,1.4v-9.6h2.3v13.6h-2.2l-6-8.6l-0.7-1v9.6H4734.6z"/>
			<path class="st8" d="M4748.9,3217v-13.6h5c1.4,0,2.6,0.3,3.5,0.9s1.6,1.4,2,2.4c0.4,1,0.7,2.2,0.7,3.4c0,1.4-0.2,2.6-0.7,3.6
				s-1.2,1.8-2.1,2.4s-2,0.9-3.4,0.9H4748.9z M4751.1,3205.3v9.8h2.7c0.8,0,1.5-0.2,2.1-0.5s1-0.9,1.4-1.6c0.3-0.7,0.5-1.7,0.5-2.8
				c0-1-0.1-1.8-0.4-2.6c-0.3-0.7-0.7-1.3-1.2-1.7c-0.5-0.4-1.3-0.6-2.1-0.6H4751.1z"/>
			<path class="st8" d="M4762.3,3217v-13.6h7.9l0.3,1.7h-6v4.1h4.6l0.3,1.8h-4.9v4.3h6.5l0.3,1.7H4762.3z"/>
			<path class="st8" d="M4777.3,3203.4c1,0,1.9,0.1,2.7,0.4s1.4,0.7,1.9,1.3c0.5,0.6,0.7,1.4,0.7,2.3c0,0.9-0.2,1.6-0.7,2.2
				s-1,1.1-1.7,1.4l3.4,5.9h-2.4l-3-5.3c-0.2,0-0.4,0-0.6,0c-0.2,0-0.5,0-0.6,0h-1.5v5.3h-2.2v-13.6H4777.3z M4775.5,3205.3v4.6h1.8
				c0.6,0,1.1-0.1,1.5-0.2c0.4-0.2,0.8-0.4,1.1-0.7s0.4-0.8,0.4-1.3c0-0.6-0.1-1-0.4-1.4c-0.2-0.3-0.6-0.6-1-0.7
				c-0.4-0.1-1-0.2-1.6-0.2H4775.5z"/>
		</g>
		<g class="st7">
			<path class="st8" d="M4677.9,3228.4l5.3,13.5l-2.2,0.3l-1.3-3.6h-5.4l-1.3,3.4h-2.2l5.2-13.6H4677.9z M4676.9,3231.4l-2,5.3h4
				L4676.9,3231.4z"/>
			<path class="st8" d="M4697.5,3230.6c-0.3-0.1-0.7-0.2-1-0.3s-0.6-0.1-0.9-0.2c-0.3-0.1-0.6-0.1-1.1-0.1c-0.8,0-1.5,0.2-2.1,0.7
				c-0.6,0.4-1.1,1.1-1.5,1.8s-0.5,1.7-0.5,2.8c0,0.7,0.1,1.3,0.3,2s0.4,1.2,0.8,1.6c0.3,0.5,0.8,0.9,1.2,1.1s1.1,0.4,1.7,0.4
				c0.6,0,1.2-0.1,1.6-0.2s0.9-0.3,1.3-0.4l0.9,1.7c-0.3,0.2-0.7,0.3-1.1,0.4c-0.4,0.1-0.9,0.2-1.3,0.3s-0.9,0.1-1.2,0.1
				c-1.1,0-2-0.2-2.8-0.5c-0.8-0.4-1.5-0.9-2-1.5s-0.9-1.4-1.2-2.2c-0.3-0.8-0.4-1.7-0.4-2.7c0-1,0.2-2,0.5-2.9s0.7-1.6,1.3-2.3
				c0.6-0.6,1.3-1.1,2-1.5s1.7-0.5,2.7-0.5c0.3,0,0.6,0,1,0.1c0.4,0.1,0.8,0.1,1.3,0.3c0.4,0.1,0.9,0.3,1.2,0.5L4697.5,3230.6z"/>
			<path class="st8" d="M4705.6,3242.3c-1.3,0-2.5-0.3-3.5-0.9s-1.7-1.5-2.3-2.5c-0.5-1.1-0.8-2.2-0.8-3.6c0-1.4,0.3-2.6,0.8-3.7
				c0.6-1.1,1.3-1.9,2.3-2.5c1-0.6,2.1-1,3.4-1c1.3,0,2.5,0.3,3.5,0.9s1.8,1.5,2.3,2.5c0.5,1.1,0.8,2.2,0.8,3.6
				c0,1.4-0.3,2.6-0.9,3.7s-1.3,1.9-2.3,2.5C4708.1,3241.9,4706.9,3242.3,4705.6,3242.3z M4705.6,3240.4c0.8,0,1.6-0.2,2.2-0.6
				c0.6-0.4,1.1-1,1.5-1.8c0.4-0.8,0.6-1.7,0.6-2.8c0-1-0.2-1.9-0.5-2.7c-0.3-0.8-0.8-1.4-1.5-1.8c-0.6-0.4-1.4-0.7-2.2-0.7
				c-0.8,0-1.5,0.2-2.2,0.7c-0.7,0.4-1.2,1.1-1.6,1.8c-0.4,0.8-0.6,1.7-0.6,2.7c0,1,0.2,1.9,0.5,2.7c0.4,0.8,0.8,1.4,1.5,1.8
				C4704,3240.2,4704.8,3240.4,4705.6,3240.4z"/>
			<path class="st8" d="M4714.5,3242v-13.6h2.1l5.8,8.2l0.9,1.4v-9.6h2.3v13.6h-2.2l-6-8.6l-0.7-1v9.6H4714.5z"/>
			<path class="st8" d="M4736.7,3242v-5.9h-5.7v5.9h-2.2v-13.6l2.2-0.1v6h5.7v-5.9h2.2v13.6H4736.7z"/>
			<path class="st8" d="M4742.2,3242v-13.6h7.9l0.3,1.7h-6v4.1h4.6l0.3,1.8h-4.9v4.3h6.5l0.3,1.7H4742.2z"/>
			<path class="st8" d="M4761.5,3230.6c-0.3-0.1-0.7-0.2-1-0.3s-0.6-0.1-0.9-0.2c-0.3-0.1-0.6-0.1-1.1-0.1c-0.8,0-1.5,0.2-2.1,0.7
				c-0.6,0.4-1.1,1.1-1.5,1.8s-0.5,1.7-0.5,2.8c0,0.7,0.1,1.3,0.3,2s0.4,1.2,0.8,1.6c0.3,0.5,0.8,0.9,1.2,1.1s1.1,0.4,1.7,0.4
				c0.6,0,1.2-0.1,1.6-0.2s0.9-0.3,1.3-0.4l0.9,1.7c-0.3,0.2-0.7,0.3-1.1,0.4c-0.4,0.1-0.9,0.2-1.3,0.3s-0.9,0.1-1.2,0.1
				c-1.1,0-2-0.2-2.8-0.5c-0.8-0.4-1.5-0.9-2-1.5s-0.9-1.4-1.2-2.2c-0.3-0.8-0.4-1.7-0.4-2.7c0-1,0.2-2,0.5-2.9s0.7-1.6,1.3-2.3
				c0.6-0.6,1.3-1.1,2-1.5s1.7-0.5,2.7-0.5c0.3,0,0.6,0,1,0.1c0.4,0.1,0.8,0.1,1.3,0.3c0.4,0.1,0.9,0.3,1.2,0.5L4761.5,3230.6z"/>
			<path class="st8" d="M4764.1,3242v-13.6h7.9l0.3,1.7h-6v4.1h4.6l0.3,1.8h-4.9v4.3h6.5l0.3,1.7H4764.1z"/>
			<path class="st8" d="M4779.1,3228.4c1,0,1.9,0.1,2.7,0.4s1.4,0.7,1.9,1.3c0.5,0.6,0.7,1.4,0.7,2.3c0,0.9-0.2,1.6-0.7,2.2
				s-1,1.1-1.7,1.4l3.4,5.9h-2.4l-3-5.3c-0.2,0-0.4,0-0.6,0c-0.2,0-0.5,0-0.6,0h-1.5v5.3h-2.2v-13.6H4779.1z M4777.2,3230.3v4.6h1.8
				c0.6,0,1.1-0.1,1.5-0.2c0.4-0.2,0.8-0.4,1.1-0.7s0.4-0.8,0.4-1.3c0-0.6-0.1-1-0.4-1.4c-0.2-0.3-0.6-0.6-1-0.7
				c-0.4-0.1-1-0.2-1.6-0.2H4777.2z"/>
		</g>
		<g class="st7">
			<path class="st8" d="M4679.9,3526.8h-1.9v2.6h-2.3v-2.6h-5.7l-0.3-1.9l6.6-8.3h1.7v8.3h2.1L4679.9,3526.8z M4672.2,3524.9h3.6
				v-4.6L4672.2,3524.9z"/>
			<path class="st8" d="M4681.2,3527.6c-0.3-0.3-0.4-0.6-0.4-0.9c0-0.4,0.1-0.7,0.4-1c0.3-0.3,0.6-0.4,1-0.4c0.4,0,0.7,0.1,0.9,0.4
				c0.2,0.2,0.4,0.6,0.4,0.9c0,0.4-0.1,0.7-0.4,1c-0.2,0.3-0.5,0.4-0.9,0.4C4681.8,3528,4681.5,3527.9,4681.2,3527.6z"/>
			<path class="st8" d="M4695.4,3514.4l5.3,13.5l-2.2,0.3l-1.3-3.6h-5.4l-1.3,3.4h-2.2l5.2-13.6H4695.4z M4694.4,3517.4l-2,5.3h4
				L4694.4,3517.4z"/>
			<path class="st8" d="M4702.4,3528v-13.6h4.1c1,0,1.9,0.1,2.7,0.4s1.4,0.7,1.9,1.4c0.5,0.6,0.7,1.5,0.7,2.5c0,0.8-0.1,1.4-0.5,2
				c-0.3,0.6-0.7,1-1.2,1.4c-0.5,0.4-1.1,0.6-1.7,0.8c-0.6,0.2-1.3,0.3-2,0.3h-1.7v4.9H4702.4z M4704.6,3516.3v5h1.8
				c0.6,0,1.1-0.1,1.5-0.2c0.4-0.2,0.8-0.4,1-0.8c0.3-0.4,0.4-0.8,0.4-1.4c0-0.6-0.1-1.1-0.4-1.5c-0.2-0.4-0.6-0.6-1-0.8
				c-0.4-0.1-1-0.2-1.6-0.2H4704.6z"/>
			<path class="st8" d="M4717.8,3514.4c1,0,1.9,0.1,2.7,0.4s1.4,0.7,1.9,1.3c0.5,0.6,0.7,1.4,0.7,2.3c0,0.9-0.2,1.6-0.7,2.2
				s-1,1.1-1.7,1.4l3.4,5.9h-2.4l-3-5.3c-0.2,0-0.4,0-0.6,0c-0.2,0-0.5,0-0.6,0h-1.5v5.3h-2.2v-13.6H4717.8z M4716,3516.3v4.6h1.8
				c0.6,0,1.1-0.1,1.5-0.2c0.4-0.2,0.8-0.4,1.1-0.7s0.4-0.8,0.4-1.3c0-0.6-0.1-1-0.4-1.4c-0.2-0.3-0.6-0.6-1-0.7
				c-0.4-0.1-1-0.2-1.6-0.2H4716z"/>
			<path class="st8" d="M4725.8,3528v-13.6h7.9l0.3,1.7h-6v4.1h4.6l0.3,1.8h-4.9v4.3h6.5l0.3,1.7H4725.8z"/>
			<path class="st8" d="M4736.7,3528v-13.6h2.1l5.8,8.2l0.9,1.4v-9.6h2.3v13.6h-2.2l-6-8.6l-0.7-1v9.6H4736.7z"/>
			<path class="st8" d="M4751,3528v-13.6h5c1.4,0,2.6,0.3,3.5,0.9s1.6,1.4,2,2.4c0.4,1,0.7,2.2,0.7,3.4c0,1.4-0.2,2.6-0.7,3.6
				s-1.2,1.8-2.1,2.4s-2,0.9-3.4,0.9H4751z M4753.2,3516.3v9.8h2.7c0.8,0,1.5-0.2,2.1-0.5s1-0.9,1.4-1.6c0.3-0.7,0.5-1.7,0.5-2.8
				c0-1-0.1-1.8-0.4-2.6c-0.3-0.7-0.7-1.3-1.2-1.7c-0.5-0.4-1.3-0.6-2.1-0.6H4753.2z"/>
			<path class="st8" d="M4764.4,3528v-13.6h7.9l0.3,1.7h-6v4.1h4.6l0.3,1.8h-4.9v4.3h6.5l0.3,1.7H4764.4z"/>
			<path class="st8" d="M4779.4,3514.4c1,0,1.9,0.1,2.7,0.4s1.4,0.7,1.9,1.3c0.5,0.6,0.7,1.4,0.7,2.3c0,0.9-0.2,1.6-0.7,2.2
				s-1,1.1-1.7,1.4l3.4,5.9h-2.4l-3-5.3c-0.2,0-0.4,0-0.6,0c-0.2,0-0.5,0-0.6,0h-1.5v5.3h-2.2v-13.6H4779.4z M4777.6,3516.3v4.6h1.8
				c0.6,0,1.1-0.1,1.5-0.2c0.4-0.2,0.8-0.4,1.1-0.7s0.4-0.8,0.4-1.3c0-0.6-0.1-1-0.4-1.4c-0.2-0.3-0.6-0.6-1-0.7
				c-0.4-0.1-1-0.2-1.6-0.2H4777.6z"/>
		</g>
		<g class="st7">
			<path class="st8" d="M4710.8,3539.4l5.3,13.5l-2.2,0.3l-1.3-3.6h-5.4l-1.3,3.4h-2.2l5.2-13.6H4710.8z M4709.7,3542.4l-2,5.3h4
				L4709.7,3542.4z"/>
			<path class="st8" d="M4721.7,3550.4c0.3,0.1,0.6,0.3,1,0.4c0.4,0.1,0.8,0.3,1.2,0.4c0.4,0.1,0.8,0.1,1.2,0.1
				c0.6,0,1.1-0.1,1.5-0.2c0.4-0.1,0.7-0.3,0.9-0.6c0.2-0.3,0.3-0.6,0.3-0.9c0-0.4-0.1-0.7-0.4-1c-0.3-0.3-0.6-0.5-1.1-0.8
				c-0.5-0.3-1-0.5-1.6-0.8c-0.5-0.3-1-0.6-1.5-0.8c-0.5-0.3-0.9-0.6-1.2-0.9s-0.6-0.7-0.8-1.1c-0.2-0.4-0.3-0.9-0.3-1.4
				c0-0.7,0.2-1.3,0.5-1.8c0.4-0.5,0.9-1,1.6-1.3c0.7-0.3,1.5-0.5,2.4-0.5c0.7,0,1.3,0.1,2,0.3s1.2,0.4,1.7,0.7l-0.7,1.8
				c-0.3-0.1-0.5-0.3-0.8-0.4c-0.3-0.1-0.6-0.2-0.9-0.3c-0.3-0.1-0.7-0.1-1.1-0.1c-0.7,0-1.2,0.1-1.7,0.4c-0.5,0.3-0.7,0.7-0.7,1.2
				c0,0.4,0.1,0.7,0.4,1c0.2,0.3,0.6,0.6,1.1,0.8s1,0.5,1.6,0.9c0.5,0.3,1,0.5,1.5,0.8s0.9,0.6,1.2,0.9c0.3,0.3,0.6,0.7,0.8,1.1
				c0.2,0.4,0.3,0.9,0.3,1.4c0,0.7-0.2,1.3-0.6,1.9c-0.4,0.6-1,1-1.7,1.3c-0.7,0.3-1.6,0.5-2.7,0.5c-0.3,0-0.6,0-1-0.1
				c-0.4-0.1-0.8-0.1-1.1-0.2s-0.7-0.2-1.1-0.3c-0.3-0.1-0.6-0.3-0.7-0.4L4721.7,3550.4z"/>
			<path class="st8" d="M4732.2,3553v-13.6h7.9l0.3,1.7h-6v4.1h4.6l0.3,1.8h-4.9v4.3h6.5l0.3,1.7H4732.2z"/>
			<path class="st8" d="M4747.2,3539.4c1,0,1.9,0.1,2.7,0.4s1.4,0.7,1.9,1.3c0.5,0.6,0.7,1.4,0.7,2.3c0,0.9-0.2,1.6-0.7,2.2
				s-1,1.1-1.7,1.4l3.4,5.9h-2.4l-3-5.3c-0.2,0-0.4,0-0.6,0c-0.2,0-0.5,0-0.6,0h-1.5v5.3h-2.2v-13.6H4747.2z M4745.3,3541.3v4.6h1.8
				c0.6,0,1.1-0.1,1.5-0.2c0.4-0.2,0.8-0.4,1.1-0.7s0.4-0.8,0.4-1.3c0-0.6-0.1-1-0.4-1.4c-0.2-0.3-0.6-0.6-1-0.7
				c-0.4-0.1-1-0.2-1.6-0.2H4745.3z"/>
		</g>
		<g class="st7">
			<path class="st8" d="M5127,3205.8c0.6,0.3,1.1,0.7,1.4,1.2c0.3,0.5,0.5,1.1,0.5,1.8c0,0.6-0.1,1.1-0.3,1.5s-0.5,1-0.9,1.4
				c-0.4,0.5-1,1-1.7,1.7l-2.2,1.9l5.4,0l0.3,1.7h-8.8v-1.5l4.1-3.6c0.5-0.4,0.8-0.8,1.1-1.1c0.3-0.3,0.5-0.6,0.7-1
				c0.2-0.3,0.2-0.6,0.2-0.9c0-0.6-0.2-1-0.6-1.3s-1-0.4-1.7-0.4c-0.4,0-0.9,0.1-1.2,0.2c-0.4,0.1-0.7,0.2-1.1,0.4
				c-0.3,0.2-0.6,0.3-0.8,0.5l-0.5-1.8c0.4-0.2,0.9-0.5,1.5-0.7c0.6-0.2,1.4-0.3,2.3-0.3C5125.6,3205.4,5126.4,3205.6,5127,3205.8z"
				/>
			<path class="st8" d="M5130.7,3216.6c-0.3-0.3-0.4-0.6-0.4-0.9c0-0.4,0.1-0.7,0.4-1c0.3-0.3,0.6-0.4,1-0.4c0.4,0,0.7,0.1,0.9,0.4
				c0.2,0.2,0.4,0.6,0.4,0.9c0,0.4-0.1,0.7-0.4,1c-0.2,0.3-0.5,0.4-0.9,0.4C5131.2,3217,5130.9,3216.9,5130.7,3216.6z"/>
			<path class="st8" d="M5144.9,3203.4l5.3,13.5l-2.2,0.3l-1.3-3.6h-5.4l-1.3,3.4h-2.2l5.2-13.6H5144.9z M5143.9,3206.4l-2,5.3h4
				L5143.9,3206.4z"/>
			<path class="st8" d="M5151.9,3217v-13.6h4.1c1,0,1.9,0.1,2.7,0.4s1.4,0.7,1.9,1.4c0.5,0.6,0.7,1.5,0.7,2.5c0,0.8-0.1,1.4-0.5,2
				c-0.3,0.6-0.7,1-1.2,1.4c-0.5,0.4-1.1,0.6-1.7,0.8c-0.6,0.2-1.3,0.3-2,0.3h-1.7v4.9H5151.9z M5154.1,3205.3v5h1.8
				c0.6,0,1.1-0.1,1.5-0.2c0.4-0.2,0.8-0.4,1-0.8c0.3-0.4,0.4-0.8,0.4-1.4c0-0.6-0.1-1.1-0.4-1.5c-0.2-0.4-0.6-0.6-1-0.8
				c-0.4-0.1-1-0.2-1.6-0.2H5154.1z"/>
			<path class="st8" d="M5167.3,3203.4c1,0,1.9,0.1,2.7,0.4s1.4,0.7,1.9,1.3c0.5,0.6,0.7,1.4,0.7,2.3c0,0.9-0.2,1.6-0.7,2.2
				c-0.4,0.6-1,1.1-1.7,1.4l3.4,5.9h-2.4l-3-5.3c-0.2,0-0.4,0-0.6,0c-0.2,0-0.5,0-0.6,0h-1.5v5.3h-2.2v-13.6H5167.3z M5165.4,3205.3
				v4.6h1.8c0.6,0,1.1-0.1,1.5-0.2c0.4-0.2,0.8-0.4,1.1-0.7s0.4-0.8,0.4-1.3c0-0.6-0.1-1-0.4-1.4c-0.2-0.3-0.6-0.6-1-0.7
				c-0.4-0.1-1-0.2-1.6-0.2H5165.4z"/>
			<path class="st8" d="M5175.2,3217v-13.6h7.9l0.3,1.7h-6v4.1h4.6l0.3,1.8h-4.9v4.3h6.5l0.3,1.7H5175.2z"/>
			<path class="st8" d="M5186.2,3217v-13.6h2.1l5.8,8.2l0.9,1.4v-9.6h2.3v13.6h-2.2l-6-8.6l-0.7-1v9.6H5186.2z"/>
			<path class="st8" d="M5200.5,3217v-13.6h5c1.4,0,2.6,0.3,3.5,0.9c0.9,0.6,1.6,1.4,2,2.4c0.4,1,0.7,2.2,0.7,3.4
				c0,1.4-0.2,2.6-0.7,3.6c-0.5,1-1.2,1.8-2.1,2.4s-2,0.9-3.4,0.9H5200.5z M5202.7,3205.3v9.8h2.7c0.8,0,1.5-0.2,2.1-0.5
				s1-0.9,1.4-1.6s0.5-1.7,0.5-2.8c0-1-0.1-1.8-0.4-2.6s-0.7-1.3-1.2-1.7c-0.5-0.4-1.3-0.6-2.1-0.6H5202.7z"/>
			<path class="st8" d="M5213.9,3217v-13.6h7.9l0.3,1.7h-6v4.1h4.6l0.3,1.8h-4.9v4.3h6.5l0.3,1.7H5213.9z"/>
			<path class="st8" d="M5228.9,3203.4c1,0,1.9,0.1,2.7,0.4s1.4,0.7,1.9,1.3c0.5,0.6,0.7,1.4,0.7,2.3c0,0.9-0.2,1.6-0.7,2.2
				c-0.4,0.6-1,1.1-1.7,1.4l3.4,5.9h-2.4l-3-5.3c-0.2,0-0.4,0-0.6,0c-0.2,0-0.5,0-0.6,0h-1.5v5.3h-2.2v-13.6H5228.9z M5227.1,3205.3
				v4.6h1.8c0.6,0,1.1-0.1,1.5-0.2c0.4-0.2,0.8-0.4,1.1-0.7s0.4-0.8,0.4-1.3c0-0.6-0.1-1-0.4-1.4c-0.2-0.3-0.6-0.6-1-0.7
				c-0.4-0.1-1-0.2-1.6-0.2H5227.1z"/>
		</g>
		<g class="st7">
			<path class="st8" d="M5148.9,3228.4l5.3,13.5l-2.2,0.3l-1.3-3.6h-5.4l-1.3,3.4h-2.2l5.2-13.6H5148.9z M5147.8,3231.4l-2,5.3h4
				L5147.8,3231.4z"/>
			<path class="st8" d="M5167,3236.1h-4.7v5.9h-2.2v-13.6h7.5l0.4,1.7h-5.6v4.2h4.4L5167,3236.1z"/>
			<path class="st8" d="M5175.4,3228.4l5.3,13.5l-2.2,0.3l-1.3-3.6h-5.4l-1.3,3.4h-2.2l5.2-13.6H5175.4z M5174.4,3231.4l-2,5.3h4
				L5174.4,3231.4z"/>
			<path class="st8" d="M5191.6,3242h-10.4l-0.3-1.7l8-10.1h-7.2l-0.3-1.8h9.8l0.2,1.8l-8.2,10.1h8L5191.6,3242z"/>
			<path class="st8" d="M5193.5,3242v-13.6h7.9l0.3,1.7h-6v4.1h4.6l0.3,1.8h-4.9v4.3h6.5l0.3,1.7H5193.5z"/>
			<path class="st8" d="M5208.5,3228.4c1,0,1.9,0.1,2.7,0.4c0.8,0.3,1.4,0.7,1.9,1.3c0.5,0.6,0.7,1.4,0.7,2.3c0,0.9-0.2,1.6-0.7,2.2
				c-0.4,0.6-1,1.1-1.7,1.4l3.4,5.9h-2.4l-3-5.3c-0.2,0-0.4,0-0.6,0s-0.5,0-0.6,0h-1.5v5.3h-2.2v-13.6H5208.5z M5206.7,3230.3v4.6
				h1.8c0.6,0,1.1-0.1,1.5-0.2c0.4-0.2,0.8-0.4,1.1-0.7s0.4-0.8,0.4-1.3c0-0.6-0.1-1-0.3-1.4c-0.2-0.3-0.6-0.6-1-0.7
				c-0.4-0.1-1-0.2-1.6-0.2H5206.7z"/>
		</g>
		<g class="st7">
			<path class="st8" d="M5127.1,3516.9c0.6,0.3,1.1,0.7,1.4,1.2c0.3,0.5,0.5,1.1,0.5,1.7c0,0.4-0.1,0.8-0.3,1.2
				c-0.2,0.4-0.4,0.7-0.7,1c-0.3,0.3-0.6,0.5-0.9,0.6c0.3,0.1,0.6,0.3,0.9,0.5c0.3,0.3,0.6,0.6,0.8,1.1c0.2,0.4,0.3,0.9,0.3,1.5
				c0,0.7-0.2,1.4-0.6,2c-0.4,0.6-0.9,1-1.6,1.4c-0.7,0.3-1.5,0.5-2.5,0.5c-0.7,0-1.5-0.1-2.2-0.4c-0.7-0.2-1.4-0.5-2-0.8l1.1-1.5
				c0.5,0.3,1,0.5,1.5,0.7s1,0.2,1.6,0.2c0.4,0,0.8-0.1,1.2-0.2c0.4-0.2,0.7-0.4,0.9-0.7c0.2-0.3,0.4-0.7,0.4-1.1
				c0-0.7-0.3-1.2-0.8-1.6c-0.5-0.4-1.3-0.6-2.5-0.6h-0.7l-0.3-1.8h1.2c0.9,0,1.6-0.2,2.1-0.5c0.5-0.3,0.8-0.8,0.8-1.4
				c0-0.3-0.1-0.6-0.2-0.8c-0.2-0.2-0.4-0.4-0.7-0.6s-0.7-0.2-1.1-0.2c-0.6,0-1.2,0.1-1.7,0.3s-1,0.5-1.3,0.7l-1.1-1.5
				c0.6-0.4,1.3-0.7,1.9-1s1.4-0.4,2.2-0.4C5125.7,3516.4,5126.5,3516.6,5127.1,3516.9z"/>
			<path class="st8" d="M5130.5,3527.6c-0.3-0.3-0.4-0.6-0.4-0.9c0-0.4,0.1-0.7,0.4-1c0.3-0.3,0.6-0.4,1-0.4c0.4,0,0.7,0.1,0.9,0.4
				c0.2,0.2,0.4,0.6,0.4,0.9c0,0.4-0.1,0.7-0.4,1c-0.2,0.3-0.5,0.4-0.9,0.4C5131.1,3528,5130.8,3527.9,5130.5,3527.6z"/>
			<path class="st8" d="M5144.8,3514.4l5.3,13.5l-2.2,0.3l-1.3-3.6h-5.4l-1.3,3.4h-2.2l5.2-13.6H5144.8z M5143.8,3517.4l-2,5.3h4
				L5143.8,3517.4z"/>
			<path class="st8" d="M5151.7,3528v-13.6h4.1c1,0,1.9,0.1,2.7,0.4s1.4,0.7,1.9,1.4c0.5,0.6,0.7,1.5,0.7,2.5c0,0.8-0.1,1.4-0.5,2
				c-0.3,0.6-0.7,1-1.2,1.4c-0.5,0.4-1.1,0.6-1.7,0.8c-0.6,0.2-1.3,0.3-2,0.3h-1.7v4.9H5151.7z M5154,3516.3v5h1.8
				c0.6,0,1.1-0.1,1.5-0.2c0.4-0.2,0.8-0.4,1-0.8c0.3-0.4,0.4-0.8,0.4-1.4c0-0.6-0.1-1.1-0.4-1.5c-0.2-0.4-0.6-0.6-1-0.8
				c-0.4-0.1-1-0.2-1.6-0.2H5154z"/>
			<path class="st8" d="M5167.2,3514.4c1,0,1.9,0.1,2.7,0.4s1.4,0.7,1.9,1.3c0.5,0.6,0.7,1.4,0.7,2.3c0,0.9-0.2,1.6-0.7,2.2
				c-0.4,0.6-1,1.1-1.7,1.4l3.4,5.9h-2.4l-3-5.3c-0.2,0-0.4,0-0.6,0c-0.2,0-0.5,0-0.6,0h-1.5v5.3h-2.2v-13.6H5167.2z M5165.3,3516.3
				v4.6h1.8c0.6,0,1.1-0.1,1.5-0.2c0.4-0.2,0.8-0.4,1.1-0.7s0.4-0.8,0.4-1.3c0-0.6-0.1-1-0.4-1.4c-0.2-0.3-0.6-0.6-1-0.7
				c-0.4-0.1-1-0.2-1.6-0.2H5165.3z"/>
			<path class="st8" d="M5175.1,3528v-13.6h7.9l0.3,1.7h-6v4.1h4.6l0.3,1.8h-4.9v4.3h6.5l0.3,1.7H5175.1z"/>
			<path class="st8" d="M5186.1,3528v-13.6h2.1l5.8,8.2l0.9,1.4v-9.6h2.3v13.6h-2.2l-6-8.6l-0.7-1v9.6H5186.1z"/>
			<path class="st8" d="M5200.4,3528v-13.6h5c1.4,0,2.6,0.3,3.5,0.9c0.9,0.6,1.6,1.4,2,2.4c0.4,1,0.7,2.2,0.7,3.4
				c0,1.4-0.2,2.6-0.7,3.6c-0.5,1-1.2,1.8-2.1,2.4s-2,0.9-3.4,0.9H5200.4z M5202.6,3516.3v9.8h2.7c0.8,0,1.5-0.2,2.1-0.5
				s1-0.9,1.4-1.6c0.3-0.7,0.5-1.7,0.5-2.8c0-1-0.1-1.8-0.4-2.6c-0.3-0.7-0.7-1.3-1.2-1.7c-0.5-0.4-1.3-0.6-2.1-0.6H5202.6z"/>
			<path class="st8" d="M5213.8,3528v-13.6h7.9l0.3,1.7h-6v4.1h4.6l0.3,1.8h-4.9v4.3h6.5l0.3,1.7H5213.8z"/>
			<path class="st8" d="M5228.8,3514.4c1,0,1.9,0.1,2.7,0.4s1.4,0.7,1.9,1.3c0.5,0.6,0.7,1.4,0.7,2.3c0,0.9-0.2,1.6-0.7,2.2
				c-0.4,0.6-1,1.1-1.7,1.4l3.4,5.9h-2.4l-3-5.3c-0.2,0-0.4,0-0.6,0c-0.2,0-0.5,0-0.6,0h-1.5v5.3h-2.2v-13.6H5228.8z M5226.9,3516.3
				v4.6h1.8c0.6,0,1.1-0.1,1.5-0.2c0.4-0.2,0.8-0.4,1.1-0.7s0.4-0.8,0.4-1.3c0-0.6-0.1-1-0.4-1.4c-0.2-0.3-0.6-0.6-1-0.7
				c-0.4-0.1-1-0.2-1.6-0.2H5226.9z"/>
		</g>
		<g class="st7">
			<path class="st8" d="M5130.2,3539.4l5.3,13.5l-2.2,0.3l-1.3-3.6h-5.4l-1.3,3.4h-2.2l5.2-13.6H5130.2z M5129.1,3542.4l-2,5.3h4
				L5129.1,3542.4z"/>
			<path class="st8" d="M5149.7,3541.6c-0.3-0.1-0.7-0.2-1-0.3c-0.3-0.1-0.6-0.1-0.9-0.2c-0.3-0.1-0.6-0.1-1.1-0.1
				c-0.8,0-1.5,0.2-2.1,0.7c-0.6,0.4-1.1,1.1-1.5,1.8c-0.4,0.8-0.5,1.7-0.5,2.8c0,0.7,0.1,1.3,0.3,2c0.2,0.6,0.4,1.2,0.8,1.6
				c0.3,0.5,0.8,0.9,1.2,1.1s1.1,0.4,1.7,0.4c0.6,0,1.2-0.1,1.7-0.2c0.5-0.1,0.9-0.3,1.3-0.4l0.9,1.7c-0.3,0.2-0.7,0.3-1.1,0.4
				c-0.4,0.1-0.9,0.2-1.3,0.3s-0.9,0.1-1.2,0.1c-1.1,0-2-0.2-2.8-0.5c-0.8-0.4-1.5-0.9-2-1.5s-0.9-1.4-1.2-2.2s-0.4-1.7-0.4-2.7
				c0-1,0.2-2,0.5-2.9s0.7-1.6,1.3-2.3c0.6-0.6,1.3-1.1,2-1.5c0.8-0.4,1.7-0.5,2.7-0.5c0.3,0,0.6,0,1,0.1s0.8,0.1,1.3,0.3
				c0.4,0.1,0.8,0.3,1.2,0.5L5149.7,3541.6z"/>
			<path class="st8" d="M5157.9,3553.3c-1.3,0-2.5-0.3-3.5-0.9c-1-0.6-1.7-1.5-2.3-2.5c-0.5-1.1-0.8-2.2-0.8-3.6
				c0-1.4,0.3-2.6,0.8-3.7c0.6-1.1,1.3-1.9,2.3-2.5c1-0.6,2.1-1,3.4-1c1.3,0,2.5,0.3,3.5,0.9c1,0.6,1.8,1.5,2.3,2.5
				c0.5,1.1,0.8,2.2,0.8,3.6c0,1.4-0.3,2.6-0.8,3.7c-0.6,1.1-1.3,1.9-2.3,2.5C5160.3,3552.9,5159.2,3553.3,5157.9,3553.3z
				 M5157.9,3551.4c0.8,0,1.6-0.2,2.2-0.6c0.6-0.4,1.1-1,1.5-1.8s0.6-1.7,0.6-2.8c0-1-0.2-1.9-0.5-2.7c-0.3-0.8-0.8-1.4-1.5-1.8
				c-0.6-0.4-1.4-0.7-2.2-0.7c-0.8,0-1.5,0.2-2.2,0.7c-0.7,0.4-1.2,1.1-1.6,1.8c-0.4,0.8-0.6,1.7-0.6,2.7c0,1,0.2,1.9,0.5,2.7
				s0.8,1.4,1.5,1.8C5156.3,3551.2,5157,3551.4,5157.9,3551.4z"/>
			<path class="st8" d="M5166.7,3553v-13.6h2.1l5.8,8.2l0.9,1.4v-9.6h2.3v13.6h-2.2l-6-8.6l-0.7-1v9.6H5166.7z"/>
			<path class="st8" d="M5185.7,3549.9l3.9-10.5h2.2l-5.2,13.6h-2l-5.3-13.5l2.2-0.3L5185.7,3549.9z"/>
			<path class="st8" d="M5193.6,3553v-13.6h2.2v13.6H5193.6z"/>
			<path class="st8" d="M5203.8,3549.9l3.9-10.5h2.2l-5.2,13.6h-2l-5.3-13.5l2.2-0.3L5203.8,3549.9z"/>
			<path class="st8" d="M5211.6,3553v-13.6h7.9l0.3,1.7h-6v4.1h4.6l0.3,1.8h-4.9v4.3h6.5l0.3,1.7H5211.6z"/>
			<path class="st8" d="M5226.6,3539.4c1,0,1.9,0.1,2.7,0.4s1.4,0.7,1.9,1.3c0.5,0.6,0.7,1.4,0.7,2.3c0,0.9-0.2,1.6-0.7,2.2
				c-0.4,0.6-1,1.1-1.7,1.4l3.4,5.9h-2.4l-3-5.3c-0.2,0-0.4,0-0.6,0c-0.2,0-0.5,0-0.6,0h-1.5v5.3h-2.2v-13.6H5226.6z M5224.8,3541.3
				v4.6h1.8c0.6,0,1.1-0.1,1.5-0.2c0.4-0.2,0.8-0.4,1.1-0.7s0.4-0.8,0.4-1.3c0-0.6-0.1-1-0.4-1.4c-0.2-0.3-0.6-0.6-1-0.7
				c-0.4-0.1-1-0.2-1.6-0.2H5224.8z"/>
		</g>
		<g>
			<g class="st7">
				<path class="st8" d="M4803.4,3299.6l-3-3.7v8.2h-3.4v-15h2.3l4.8,6.3l4.4-6.3h2.2v15h-3.5v-7.9l-2.4,3.3L4803.4,3299.6z"/>
				<path class="st8" d="M4820.4,3304.3c-1.5,0-2.9-0.3-4-1s-2-1.6-2.6-2.8c-0.6-1.2-0.9-2.5-0.9-3.9c0-1.6,0.3-2.9,1-4.1
					c0.6-1.2,1.5-2.1,2.7-2.8c1.1-0.7,2.4-1,3.9-1c1.6,0,3,0.3,4.1,1s2,1.6,2.6,2.8c0.6,1.2,0.9,2.5,0.9,3.9c0,1.5-0.3,2.9-1,4.1
					c-0.6,1.2-1.5,2.1-2.6,2.8C4823.2,3304,4821.9,3304.3,4820.4,3304.3z M4820.4,3301.4c0.8,0,1.4-0.2,2-0.5
					c0.6-0.4,1.1-0.9,1.4-1.7c0.4-0.7,0.5-1.7,0.5-2.8c0-0.9-0.2-1.7-0.5-2.5s-0.8-1.3-1.4-1.7c-0.6-0.4-1.3-0.6-2.1-0.6
					c-0.7,0-1.4,0.2-2,0.6c-0.6,0.4-1.1,1-1.5,1.7c-0.4,0.7-0.6,1.6-0.6,2.6c0,0.9,0.2,1.8,0.5,2.5c0.3,0.7,0.8,1.3,1.4,1.7
					C4818.8,3301.2,4819.5,3301.4,4820.4,3301.4z"/>
				<path class="st8" d="M4841.4,3291.7h-4.9v12.3h-3.5v-12.3h-4.5v-2.7h12.5L4841.4,3291.7z"/>
				<path class="st8" d="M4843.1,3304v-15h3.4v15H4843.1z"/>
				<path class="st8" d="M4855.6,3299.6l3.9-10.6h3.4l-5.7,15h-3.3l-5.7-14.8l3.4-0.4L4855.6,3299.6z"/>
				<path class="st8" d="M4871.9,3289l5.7,14.8l-3.4,0.4l-1.2-3.4h-5.4l-1.2,3.2h-3.4l5.7-15H4871.9z M4870.2,3293.4l-1.7,4.6h3.5
					L4870.2,3293.4z"/>
				<path class="st8" d="M4888.8,3292.2c-0.5-0.2-0.9-0.3-1.2-0.4c-0.3-0.1-0.6-0.1-0.9-0.2s-0.6-0.1-1-0.1c-0.7,0-1.3,0.2-1.9,0.6
					c-0.6,0.4-1.1,1-1.4,1.7c-0.4,0.7-0.5,1.6-0.5,2.6c0,0.7,0.1,1.4,0.3,2c0.2,0.6,0.5,1.1,0.8,1.5c0.3,0.4,0.7,0.8,1.2,1
					c0.5,0.2,1,0.4,1.5,0.4c0.6,0,1.1-0.1,1.6-0.2c0.5-0.1,1-0.3,1.4-0.5l1.3,2.6c-0.4,0.2-0.8,0.4-1.3,0.5s-1,0.3-1.5,0.3
					c-0.5,0.1-1,0.1-1.5,0.1c-1.2,0-2.3-0.2-3.2-0.6c-0.9-0.4-1.7-0.9-2.3-1.6c-0.6-0.7-1.1-1.5-1.4-2.5c-0.3-0.9-0.5-2-0.5-3.1
					c0-1.1,0.2-2.2,0.5-3.2s0.9-1.8,1.5-2.5c0.7-0.7,1.5-1.2,2.4-1.6c0.9-0.4,1.9-0.6,3-0.6c0.4,0,0.8,0,1.3,0.1
					c0.5,0.1,1,0.2,1.5,0.4c0.5,0.2,1,0.4,1.4,0.6L4888.8,3292.2z M4884.6,3303.7h2.4l-0.4,1.1c0.3,0.1,0.6,0.3,0.8,0.5
					c0.2,0.2,0.4,0.5,0.5,0.8c0.1,0.3,0.2,0.6,0.2,0.8c0,0.5-0.1,1-0.4,1.3c-0.3,0.4-0.6,0.7-1.1,0.8c-0.4,0.2-0.9,0.3-1.4,0.3
					c-0.4,0-0.8-0.1-1.2-0.2c-0.4-0.1-0.8-0.3-1.1-0.5l0.7-1.8c0.2,0.1,0.4,0.2,0.6,0.2s0.5,0.1,0.7,0.1c0.2,0,0.4,0,0.5-0.1
					c0.1-0.1,0.2-0.2,0.2-0.3c0-0.2-0.1-0.4-0.3-0.5c-0.2-0.1-0.4-0.2-0.7-0.3c-0.3-0.1-0.6-0.1-0.9-0.1L4884.6,3303.7z"/>
				<path class="st8" d="M4899.1,3289l5.7,14.8l-3.4,0.4l-1.2-3.4h-5.4l-1.2,3.2h-3.4l5.7-15H4899.1z M4901.2,3284.5
					c0,0.8-0.1,1.4-0.4,1.8c-0.2,0.4-0.5,0.8-0.9,1c-0.4,0.2-0.8,0.3-1.2,0.3c-0.3,0-0.5,0-0.7-0.1c-0.2-0.1-0.4-0.2-0.5-0.3
					c-0.1-0.1-0.3-0.2-0.4-0.2c-0.2-0.1-0.4-0.1-0.6-0.1c-0.2,0-0.3,0.1-0.4,0.2c-0.1,0.1-0.2,0.3-0.2,0.4h-2.3
					c0-0.8,0.1-1.4,0.4-1.8c0.2-0.4,0.6-0.8,0.9-1s0.8-0.3,1.2-0.3c0.3,0,0.5,0,0.7,0.1c0.2,0.1,0.4,0.2,0.5,0.3
					c0.2,0.1,0.3,0.2,0.5,0.3c0.2,0.1,0.4,0.1,0.6,0.1c0.1,0,0.3-0.1,0.4-0.2c0.1-0.1,0.2-0.3,0.2-0.5H4901.2z M4897.4,3293.4
					l-1.7,4.6h3.5L4897.4,3293.4z"/>
				<path class="st8" d="M4912.9,3304.3c-1.5,0-2.9-0.3-4-1s-2-1.6-2.6-2.8c-0.6-1.2-0.9-2.5-0.9-3.9c0-1.6,0.3-2.9,1-4.1
					c0.6-1.2,1.5-2.1,2.7-2.8c1.1-0.7,2.4-1,3.9-1c1.6,0,3,0.3,4.1,1s2,1.6,2.6,2.8c0.6,1.2,0.9,2.5,0.9,3.9c0,1.5-0.3,2.9-1,4.1
					c-0.6,1.2-1.5,2.1-2.6,2.8C4915.7,3304,4914.4,3304.3,4912.9,3304.3z M4912.9,3301.4c0.8,0,1.4-0.2,2-0.5
					c0.6-0.4,1.1-0.9,1.4-1.7c0.4-0.7,0.5-1.7,0.5-2.8c0-0.9-0.2-1.7-0.5-2.5s-0.8-1.3-1.4-1.7c-0.6-0.4-1.3-0.6-2.1-0.6
					c-0.7,0-1.4,0.2-2,0.6c-0.6,0.4-1.1,1-1.5,1.7c-0.4,0.7-0.6,1.6-0.6,2.6c0,0.9,0.2,1.8,0.5,2.5c0.3,0.7,0.8,1.3,1.4,1.7
					C4911.4,3301.2,4912.1,3301.4,4912.9,3301.4z"/>
			</g>
			<g transform="matrix(1, 0, 0, 1, 4608.5, 3134.5)">
				<g class="st7">
					<path class="st8" d="M194.9,165.1l-3-3.7v8.2h-3.4v-15h2.3l4.8,6.3l4.4-6.3h2.2v15h-3.5v-7.9l-2.4,3.3L194.9,165.1z"/>
					<path class="st8" d="M211.9,169.8c-1.5,0-2.9-0.3-4-1s-2-1.6-2.6-2.8c-0.6-1.2-0.9-2.5-0.9-3.9c0-1.6,0.3-2.9,1-4.1
						c0.6-1.2,1.5-2.1,2.7-2.8c1.1-0.7,2.4-1,3.9-1c1.6,0,3,0.3,4.1,1s2,1.6,2.6,2.8c0.6,1.2,0.9,2.5,0.9,3.9c0,1.5-0.3,2.9-1,4.1
						c-0.6,1.2-1.5,2.1-2.6,2.8C214.7,169.5,213.4,169.8,211.9,169.8z M211.9,166.9c0.8,0,1.4-0.2,2-0.5c0.6-0.4,1.1-0.9,1.4-1.7
						c0.4-0.7,0.5-1.7,0.5-2.8c0-0.9-0.2-1.7-0.5-2.5s-0.8-1.3-1.4-1.7c-0.6-0.4-1.3-0.6-2.1-0.6c-0.7,0-1.4,0.2-2,0.6
						c-0.6,0.4-1.1,1-1.5,1.7c-0.4,0.7-0.6,1.6-0.6,2.6c0,0.9,0.2,1.8,0.5,2.5c0.3,0.7,0.8,1.3,1.4,1.7
						C210.3,166.7,211,166.9,211.9,166.9z"/>
					<path class="st8" d="M232.9,157.2H228v12.3h-3.5v-12.3H220v-2.7h12.5L232.9,157.2z"/>
					<path class="st8" d="M234.6,169.5v-15h3.4v15H234.6z"/>
					<path class="st8" d="M247.1,165.1l3.9-10.6h3.4l-5.7,15h-3.3l-5.7-14.8l3.4-0.4L247.1,165.1z"/>
					<path class="st8" d="M263.4,154.5l5.7,14.8l-3.4,0.4l-1.2-3.4h-5.4l-1.2,3.2h-3.4l5.7-15H263.4z M261.7,158.9l-1.7,4.6h3.5
						L261.7,158.9z"/>
					<path class="st8" d="M280.3,157.7c-0.5-0.2-0.9-0.3-1.2-0.4c-0.3-0.1-0.6-0.1-0.9-0.2s-0.6-0.1-1-0.1c-0.7,0-1.3,0.2-1.9,0.6
						c-0.6,0.4-1.1,1-1.4,1.7c-0.4,0.7-0.5,1.6-0.5,2.6c0,0.7,0.1,1.4,0.3,2c0.2,0.6,0.5,1.1,0.8,1.5c0.3,0.4,0.7,0.8,1.2,1
						c0.5,0.2,1,0.4,1.5,0.4c0.6,0,1.1-0.1,1.6-0.2c0.5-0.1,1-0.3,1.4-0.5l1.3,2.6c-0.4,0.2-0.8,0.4-1.3,0.5s-1,0.3-1.5,0.3
						c-0.5,0.1-1,0.1-1.5,0.1c-1.2,0-2.3-0.2-3.2-0.6c-0.9-0.4-1.7-0.9-2.3-1.6c-0.6-0.7-1.1-1.5-1.4-2.5c-0.3-0.9-0.5-2-0.5-3.1
						c0-1.1,0.2-2.2,0.5-3.2s0.9-1.8,1.5-2.5c0.7-0.7,1.5-1.2,2.4-1.6c0.9-0.4,1.9-0.6,3-0.6c0.4,0,0.8,0,1.3,0.1
						c0.5,0.1,1,0.2,1.5,0.4c0.5,0.2,1,0.4,1.4,0.6L280.3,157.7z M276.1,169.2h2.4l-0.4,1.1c0.3,0.1,0.6,0.3,0.8,0.5
						c0.2,0.2,0.4,0.5,0.5,0.8c0.1,0.3,0.2,0.6,0.2,0.8c0,0.5-0.1,1-0.4,1.3c-0.3,0.4-0.6,0.7-1.1,0.8c-0.4,0.2-0.9,0.3-1.4,0.3
						c-0.4,0-0.8-0.1-1.2-0.2c-0.4-0.1-0.8-0.3-1.1-0.5l0.7-1.8c0.2,0.1,0.4,0.2,0.6,0.2s0.5,0.1,0.7,0.1c0.2,0,0.4,0,0.5-0.1
						c0.1-0.1,0.2-0.2,0.2-0.3c0-0.2-0.1-0.4-0.3-0.5c-0.2-0.1-0.4-0.2-0.7-0.3c-0.3-0.1-0.6-0.1-0.9-0.1L276.1,169.2z"/>
					<path class="st8" d="M290.6,154.5l5.7,14.8l-3.4,0.4l-1.2-3.4h-5.4l-1.2,3.2h-3.4l5.7-15H290.6z M292.7,150
						c0,0.8-0.1,1.4-0.4,1.8c-0.2,0.4-0.5,0.8-0.9,1c-0.4,0.2-0.8,0.3-1.2,0.3c-0.3,0-0.5,0-0.7-0.1c-0.2-0.1-0.4-0.2-0.5-0.3
						c-0.1-0.1-0.3-0.2-0.4-0.2c-0.2-0.1-0.4-0.1-0.6-0.1c-0.2,0-0.3,0.1-0.4,0.2c-0.1,0.1-0.2,0.3-0.2,0.4H285
						c0-0.8,0.1-1.4,0.4-1.8c0.2-0.4,0.6-0.8,0.9-1s0.8-0.3,1.2-0.3c0.3,0,0.5,0,0.7,0.1c0.2,0.1,0.4,0.2,0.5,0.3
						c0.2,0.1,0.3,0.2,0.5,0.3c0.2,0.1,0.4,0.1,0.6,0.1c0.1,0,0.3-0.1,0.4-0.2c0.1-0.1,0.2-0.3,0.2-0.5H292.7z M288.9,158.9
						l-1.7,4.6h3.5L288.9,158.9z"/>
					<path class="st8" d="M304.4,169.8c-1.5,0-2.9-0.3-4-1s-2-1.6-2.6-2.8c-0.6-1.2-0.9-2.5-0.9-3.9c0-1.6,0.3-2.9,1-4.1
						c0.6-1.2,1.5-2.1,2.7-2.8c1.1-0.7,2.4-1,3.9-1c1.6,0,3,0.3,4.1,1s2,1.6,2.6,2.8c0.6,1.2,0.9,2.5,0.9,3.9c0,1.5-0.3,2.9-1,4.1
						c-0.6,1.2-1.5,2.1-2.6,2.8C307.2,169.5,305.9,169.8,304.4,169.8z M304.4,166.9c0.8,0,1.4-0.2,2-0.5c0.6-0.4,1.1-0.9,1.4-1.7
						c0.4-0.7,0.5-1.7,0.5-2.8c0-0.9-0.2-1.7-0.5-2.5s-0.8-1.3-1.4-1.7c-0.6-0.4-1.3-0.6-2.1-0.6c-0.7,0-1.4,0.2-2,0.6
						c-0.6,0.4-1.1,1-1.5,1.7c-0.4,0.7-0.6,1.6-0.6,2.6c0,0.9,0.2,1.8,0.5,2.5c0.3,0.7,0.8,1.3,1.4,1.7
						C302.9,166.7,303.6,166.9,304.4,166.9z"/>
				</g>
			</g>
		</g>
		<g>
			<g class="st7">
				<path class="st8" d="M4800.3,3451.6l-3-3.7v8.2h-3.4v-15h2.3l4.8,6.3l4.4-6.3h2.2v15h-3.5v-7.9l-2.4,3.3L4800.3,3451.6z"/>
				<path class="st8" d="M4818.2,3441l5.7,14.8l-3.4,0.4l-1.2-3.4h-5.4l-1.2,3.2h-3.4l5.7-15H4818.2z M4816.5,3445.4l-1.7,4.6h3.5
					L4816.5,3445.4z"/>
				<path class="st8" d="M4836.8,3443.7h-4.9v12.3h-3.5v-12.3h-4.5v-2.7h12.5L4836.8,3443.7z"/>
				<path class="st8" d="M4841.8,3450.2c0,0.7,0.1,1.3,0.4,1.8c0.2,0.5,0.6,0.8,1.1,1.1c0.5,0.2,1,0.4,1.5,0.4
					c0.6,0,1.1-0.1,1.5-0.4c0.5-0.2,0.8-0.6,1.1-1.1c0.3-0.5,0.4-1.1,0.4-1.8v-9.2h3.4v9.4c0,1.2-0.3,2.2-0.8,3.1
					c-0.5,0.9-1.3,1.6-2.2,2c-1,0.5-2.1,0.7-3.4,0.7c-1.3,0-2.4-0.2-3.4-0.7c-1-0.5-1.7-1.2-2.3-2c-0.5-0.9-0.8-1.9-0.8-3.1v-9.4
					h3.5V3450.2z"/>
				<path class="st8" d="M4859.8,3441c1.1,0,2.1,0.2,3,0.5c0.9,0.3,1.6,0.9,2.2,1.6c0.5,0.7,0.8,1.6,0.8,2.8c0,0.9-0.2,1.7-0.6,2.4
					s-1,1.2-1.6,1.6l3.5,6.2h-3.9l-2.8-5.2c-0.2,0-0.4,0-0.6,0c-0.2,0-0.5,0-0.7,0h-1.3v5.2h-3.4v-15H4859.8z M4857.7,3443.8v4.2h2
					c0.5,0,0.9-0.1,1.3-0.2c0.4-0.2,0.7-0.4,0.9-0.7c0.2-0.3,0.3-0.7,0.3-1.2c0-0.5-0.1-0.9-0.3-1.2c-0.2-0.3-0.5-0.6-0.9-0.7
					s-0.8-0.2-1.4-0.2H4857.7z"/>
				<path class="st8" d="M4876.1,3441l5.7,14.8l-3.4,0.4l-1.2-3.4h-5.4l-1.2,3.2h-3.4l5.7-15H4876.1z M4874.4,3445.4l-1.7,4.6h3.5
					L4874.4,3445.4z"/>
				<path class="st8" d="M4893,3444.2c-0.5-0.2-0.9-0.3-1.2-0.4c-0.3-0.1-0.6-0.1-0.9-0.2s-0.6-0.1-1-0.1c-0.7,0-1.3,0.2-1.9,0.6
					c-0.6,0.4-1.1,1-1.4,1.7c-0.4,0.7-0.5,1.6-0.5,2.6c0,0.7,0.1,1.4,0.3,2c0.2,0.6,0.5,1.1,0.8,1.5c0.3,0.4,0.7,0.8,1.2,1
					c0.5,0.2,1,0.4,1.5,0.4c0.6,0,1.1-0.1,1.6-0.2c0.5-0.1,1-0.3,1.4-0.5l1.3,2.6c-0.4,0.2-0.8,0.4-1.3,0.5s-1,0.3-1.5,0.3
					c-0.5,0.1-1,0.1-1.5,0.1c-1.2,0-2.3-0.2-3.2-0.6c-0.9-0.4-1.7-0.9-2.3-1.6c-0.6-0.7-1.1-1.5-1.4-2.5c-0.3-0.9-0.5-2-0.5-3.1
					c0-1.1,0.2-2.2,0.5-3.2s0.9-1.8,1.5-2.5c0.7-0.7,1.5-1.2,2.4-1.6c0.9-0.4,1.9-0.6,3-0.6c0.4,0,0.8,0,1.3,0.1
					c0.5,0.1,1,0.2,1.5,0.4c0.5,0.2,1,0.4,1.4,0.6L4893,3444.2z M4888.7,3455.7h2.4l-0.4,1.1c0.3,0.1,0.6,0.3,0.8,0.5
					c0.2,0.2,0.4,0.5,0.5,0.8c0.1,0.3,0.2,0.6,0.2,0.8c0,0.5-0.1,1-0.4,1.3c-0.3,0.4-0.6,0.7-1.1,0.8c-0.4,0.2-0.9,0.3-1.4,0.3
					c-0.4,0-0.8-0.1-1.2-0.2c-0.4-0.1-0.8-0.3-1.1-0.5l0.7-1.8c0.2,0.1,0.4,0.2,0.6,0.2s0.5,0.1,0.7,0.1c0.2,0,0.4,0,0.5-0.1
					c0.1-0.1,0.2-0.2,0.2-0.3c0-0.2-0.1-0.4-0.3-0.5c-0.2-0.1-0.4-0.2-0.7-0.3c-0.3-0.1-0.6-0.1-0.9-0.1L4888.7,3455.7z"/>
				<path class="st8" d="M4903.2,3441l5.7,14.8l-3.4,0.4l-1.2-3.4h-5.4l-1.2,3.2h-3.4l5.7-15H4903.2z M4905.4,3436.5
					c0,0.8-0.1,1.4-0.4,1.8c-0.2,0.4-0.5,0.8-0.9,1c-0.4,0.2-0.8,0.3-1.2,0.3c-0.3,0-0.5,0-0.7-0.1c-0.2-0.1-0.4-0.2-0.5-0.3
					c-0.1-0.1-0.3-0.2-0.4-0.2c-0.2-0.1-0.4-0.1-0.6-0.1c-0.2,0-0.3,0.1-0.4,0.2c-0.1,0.1-0.2,0.3-0.2,0.4h-2.3
					c0-0.8,0.1-1.4,0.4-1.8c0.2-0.4,0.6-0.8,0.9-1s0.8-0.3,1.2-0.3c0.3,0,0.5,0,0.7,0.1c0.2,0.1,0.4,0.2,0.5,0.3
					c0.2,0.1,0.3,0.2,0.5,0.3c0.2,0.1,0.4,0.1,0.6,0.1c0.1,0,0.3-0.1,0.4-0.2c0.1-0.1,0.2-0.3,0.2-0.5H4905.4z M4901.6,3445.4
					l-1.7,4.6h3.5L4901.6,3445.4z"/>
				<path class="st8" d="M4917.1,3456.3c-1.5,0-2.9-0.3-4-1s-2-1.6-2.6-2.8c-0.6-1.2-0.9-2.5-0.9-3.9c0-1.6,0.3-2.9,1-4.1
					c0.6-1.2,1.5-2.1,2.7-2.8c1.1-0.7,2.4-1,3.9-1c1.6,0,3,0.3,4.1,1s2,1.6,2.6,2.8c0.6,1.2,0.9,2.5,0.9,3.9c0,1.5-0.3,2.9-1,4.1
					c-0.6,1.2-1.5,2.1-2.6,2.8C4919.9,3456,4918.6,3456.3,4917.1,3456.3z M4917,3453.4c0.8,0,1.4-0.2,2-0.5c0.6-0.4,1.1-0.9,1.4-1.7
					c0.4-0.7,0.5-1.7,0.5-2.8c0-0.9-0.2-1.7-0.5-2.5s-0.8-1.3-1.4-1.7c-0.6-0.4-1.3-0.6-2.1-0.6c-0.7,0-1.4,0.2-2,0.6
					c-0.6,0.4-1.1,1-1.5,1.7c-0.4,0.7-0.6,1.6-0.6,2.6c0,0.9,0.2,1.8,0.5,2.5c0.3,0.7,0.8,1.3,1.4,1.7
					C4915.5,3453.2,4916.2,3453.4,4917,3453.4z"/>
			</g>
			<g class="st7">
				<path class="st8" d="M4817.2,3469.2c-0.5-0.2-0.9-0.3-1.2-0.4c-0.3-0.1-0.6-0.1-0.9-0.2s-0.6-0.1-1-0.1c-0.7,0-1.3,0.2-1.9,0.6
					c-0.6,0.4-1.1,1-1.4,1.7c-0.4,0.7-0.5,1.6-0.5,2.6c0,0.7,0.1,1.4,0.3,2c0.2,0.6,0.5,1.1,0.8,1.5c0.3,0.4,0.7,0.8,1.2,1
					c0.5,0.2,1,0.4,1.5,0.4c0.6,0,1.1-0.1,1.6-0.2c0.5-0.1,1-0.3,1.4-0.5l1.3,2.6c-0.4,0.2-0.8,0.4-1.3,0.5s-1,0.3-1.5,0.3
					c-0.5,0.1-1,0.1-1.5,0.1c-1.2,0-2.3-0.2-3.2-0.6c-0.9-0.4-1.7-0.9-2.3-1.6c-0.6-0.7-1.1-1.5-1.4-2.5c-0.3-0.9-0.5-2-0.5-3.1
					c0-1.1,0.2-2.2,0.5-3.2s0.9-1.8,1.5-2.5c0.7-0.7,1.5-1.2,2.4-1.6c0.9-0.4,1.9-0.6,3-0.6c0.4,0,0.8,0,1.3,0.1
					c0.5,0.1,1,0.2,1.5,0.4c0.5,0.2,1,0.4,1.4,0.6L4817.2,3469.2z"/>
				<path class="st8" d="M4820.2,3481v-15h9.4l0.4,2.7h-6.4v3.4h4.8l0.4,2.7h-5.1v3.5h6.9l0.4,2.7H4820.2z"/>
				<path class="st8" d="M4838.3,3466c1.1,0,2.1,0.2,3,0.5c0.9,0.3,1.6,0.9,2.2,1.6c0.5,0.7,0.8,1.6,0.8,2.8c0,0.9-0.2,1.7-0.6,2.4
					s-1,1.2-1.6,1.6l3.5,6.2h-3.9l-2.8-5.2c-0.2,0-0.4,0-0.6,0c-0.2,0-0.5,0-0.7,0h-1.3v5.2h-3.4v-15H4838.3z M4836.3,3468.8v4.2h2
					c0.5,0,0.9-0.1,1.3-0.2c0.4-0.2,0.7-0.4,0.9-0.7c0.2-0.3,0.3-0.7,0.3-1.2c0-0.5-0.1-0.9-0.3-1.2c-0.2-0.3-0.5-0.6-0.9-0.7
					s-0.8-0.2-1.4-0.2H4836.3z"/>
				<path class="st8" d="M4847.3,3481v-15h9.4l0.4,2.7h-6.4v3.4h4.8l0.4,2.7h-5.1v3.5h6.9l0.4,2.7H4847.3z"/>
				<path class="st8" d="M4859.9,3481v-15h5.5c1,0,2,0.1,2.8,0.4s1.5,0.7,2,1.4c0.5,0.6,0.7,1.4,0.7,2.5c0,0.6-0.2,1.1-0.5,1.5
					c-0.3,0.4-0.7,0.8-1,1.2c0.6,0.4,1.1,0.9,1.6,1.5c0.4,0.6,0.6,1.3,0.6,2.1c0,0.8-0.2,1.4-0.5,2c-0.3,0.6-0.7,1-1.3,1.4
					c-0.5,0.4-1.2,0.6-1.8,0.8c-0.7,0.2-1.5,0.3-2.3,0.3H4859.9z M4863.4,3468.8v3.1h1.5c0.5,0,0.9-0.1,1.3-0.2
					c0.4-0.1,0.7-0.3,0.9-0.5c0.2-0.2,0.4-0.5,0.4-0.8c0-0.4-0.1-0.7-0.3-0.9c-0.2-0.2-0.4-0.4-0.8-0.5c-0.3-0.1-0.7-0.2-1.2-0.2
					H4863.4z M4863.4,3474.7v3.6h2.4c0.5,0,0.9-0.1,1.2-0.2c0.3-0.1,0.6-0.3,0.8-0.6c0.2-0.2,0.3-0.6,0.3-0.9c0-0.6-0.2-1.1-0.6-1.4
					c-0.4-0.3-1-0.5-1.6-0.5H4863.4z"/>
				<path class="st8" d="M4879.1,3466c1.1,0,2.1,0.2,3,0.5c0.9,0.3,1.6,0.9,2.2,1.6c0.5,0.7,0.8,1.6,0.8,2.8c0,0.9-0.2,1.7-0.6,2.4
					s-1,1.2-1.6,1.6l3.5,6.2h-3.9l-2.8-5.2c-0.2,0-0.4,0-0.6,0c-0.2,0-0.5,0-0.7,0h-1.3v5.2h-3.4v-15H4879.1z M4877.1,3468.8v4.2h2
					c0.5,0,0.9-0.1,1.3-0.2c0.4-0.2,0.7-0.4,0.9-0.7c0.2-0.3,0.3-0.7,0.3-1.2c0-0.5-0.1-0.9-0.3-1.2c-0.2-0.3-0.5-0.6-0.9-0.7
					s-0.8-0.2-1.4-0.2H4877.1z"/>
				<path class="st8" d="M4895.4,3466l5.7,14.8l-3.4,0.4l-1.2-3.4h-5.4l-1.2,3.2h-3.4l5.7-15H4895.4z M4893.7,3470.4l-1.7,4.6h3.5
					L4893.7,3470.4z"/>
				<path class="st8" d="M4913.1,3481h-10.3v-15h3.4v12.3h6.5L4913.1,3481z"/>
			</g>
			<g transform="matrix(1, 0, 0, 1, 4608.5, 3134.5)">
				<g class="st7">
					<path class="st8" d="M191.8,317.1l-3-3.7v8.2h-3.4v-15h2.3l4.8,6.3l4.4-6.3h2.2v15h-3.5v-7.9l-2.4,3.3L191.8,317.1z"/>
					<path class="st8" d="M209.7,306.5l5.7,14.8l-3.4,0.4l-1.2-3.4h-5.4l-1.2,3.2h-3.4l5.7-15H209.7z M208,310.9l-1.7,4.6h3.5
						L208,310.9z"/>
					<path class="st8" d="M228.3,309.2h-4.9v12.3H220v-12.3h-4.5v-2.7h12.5L228.3,309.2z"/>
					<path class="st8" d="M233.3,315.7c0,0.7,0.1,1.3,0.4,1.8c0.2,0.5,0.6,0.8,1.1,1.1c0.5,0.2,1,0.4,1.5,0.4c0.6,0,1.1-0.1,1.5-0.4
						c0.5-0.2,0.8-0.6,1.1-1.1c0.3-0.5,0.4-1.1,0.4-1.8v-9.2h3.4v9.4c0,1.2-0.3,2.2-0.8,3.1c-0.5,0.9-1.3,1.6-2.2,2
						c-1,0.5-2.1,0.7-3.4,0.7c-1.3,0-2.4-0.2-3.4-0.7c-1-0.5-1.7-1.2-2.3-2c-0.5-0.9-0.8-1.9-0.8-3.1v-9.4h3.5V315.7z"/>
					<path class="st8" d="M251.3,306.5c1.1,0,2.1,0.2,3,0.5c0.9,0.3,1.6,0.9,2.2,1.6c0.5,0.7,0.8,1.6,0.8,2.8c0,0.9-0.2,1.7-0.6,2.4
						s-1,1.2-1.6,1.6l3.5,6.2h-3.9l-2.8-5.2c-0.2,0-0.4,0-0.6,0c-0.2,0-0.5,0-0.7,0h-1.3v5.2h-3.4v-15H251.3z M249.2,309.3v4.2h2
						c0.5,0,0.9-0.1,1.3-0.2c0.4-0.2,0.7-0.4,0.9-0.7c0.2-0.3,0.3-0.7,0.3-1.2c0-0.5-0.1-0.9-0.3-1.2c-0.2-0.3-0.5-0.6-0.9-0.7
						s-0.8-0.2-1.4-0.2H249.2z"/>
					<path class="st8" d="M267.6,306.5l5.7,14.8l-3.4,0.4l-1.2-3.4h-5.4l-1.2,3.2h-3.4l5.7-15H267.6z M265.9,310.9l-1.7,4.6h3.5
						L265.9,310.9z"/>
					<path class="st8" d="M284.5,309.7c-0.5-0.2-0.9-0.3-1.2-0.4c-0.3-0.1-0.6-0.1-0.9-0.2s-0.6-0.1-1-0.1c-0.7,0-1.3,0.2-1.9,0.6
						c-0.6,0.4-1.1,1-1.4,1.7c-0.4,0.7-0.5,1.6-0.5,2.6c0,0.7,0.1,1.4,0.3,2c0.2,0.6,0.5,1.1,0.8,1.5c0.3,0.4,0.7,0.8,1.2,1
						c0.5,0.2,1,0.4,1.5,0.4c0.6,0,1.1-0.1,1.6-0.2c0.5-0.1,1-0.3,1.4-0.5l1.3,2.6c-0.4,0.2-0.8,0.4-1.3,0.5s-1,0.3-1.5,0.3
						c-0.5,0.1-1,0.1-1.5,0.1c-1.2,0-2.3-0.2-3.2-0.6c-0.9-0.4-1.7-0.9-2.3-1.6c-0.6-0.7-1.1-1.5-1.4-2.5c-0.3-0.9-0.5-2-0.5-3.1
						c0-1.1,0.2-2.2,0.5-3.2s0.9-1.8,1.5-2.5c0.7-0.7,1.5-1.2,2.4-1.6c0.9-0.4,1.9-0.6,3-0.6c0.4,0,0.8,0,1.3,0.1
						c0.5,0.1,1,0.2,1.5,0.4c0.5,0.2,1,0.4,1.4,0.6L284.5,309.7z M280.2,321.2h2.4l-0.4,1.1c0.3,0.1,0.6,0.3,0.8,0.5
						c0.2,0.2,0.4,0.5,0.5,0.8c0.1,0.3,0.2,0.6,0.2,0.8c0,0.5-0.1,1-0.4,1.3c-0.3,0.4-0.6,0.7-1.1,0.8c-0.4,0.2-0.9,0.3-1.4,0.3
						c-0.4,0-0.8-0.1-1.2-0.2c-0.4-0.1-0.8-0.3-1.1-0.5l0.7-1.8c0.2,0.1,0.4,0.2,0.6,0.2s0.5,0.1,0.7,0.1c0.2,0,0.4,0,0.5-0.1
						c0.1-0.1,0.2-0.2,0.2-0.3c0-0.2-0.1-0.4-0.3-0.5c-0.2-0.1-0.4-0.2-0.7-0.3c-0.3-0.1-0.6-0.1-0.9-0.1L280.2,321.2z"/>
					<path class="st8" d="M294.7,306.5l5.7,14.8l-3.4,0.4l-1.2-3.4h-5.4l-1.2,3.2h-3.4l5.7-15H294.7z M296.9,302
						c0,0.8-0.1,1.4-0.4,1.8c-0.2,0.4-0.5,0.8-0.9,1c-0.4,0.2-0.8,0.3-1.2,0.3c-0.3,0-0.5,0-0.7-0.1c-0.2-0.1-0.4-0.2-0.5-0.3
						c-0.1-0.1-0.3-0.2-0.4-0.2c-0.2-0.1-0.4-0.1-0.6-0.1c-0.2,0-0.3,0.1-0.4,0.2c-0.1,0.1-0.2,0.3-0.2,0.4h-2.3
						c0-0.8,0.1-1.4,0.4-1.8c0.2-0.4,0.6-0.8,0.9-1s0.8-0.3,1.2-0.3c0.3,0,0.5,0,0.7,0.1c0.2,0.1,0.4,0.2,0.5,0.3
						c0.2,0.1,0.3,0.2,0.5,0.3c0.2,0.1,0.4,0.1,0.6,0.1c0.1,0,0.3-0.1,0.4-0.2c0.1-0.1,0.2-0.3,0.2-0.5H296.9z M293.1,310.9
						l-1.7,4.6h3.5L293.1,310.9z"/>
					<path class="st8" d="M308.6,321.8c-1.5,0-2.9-0.3-4-1s-2-1.6-2.6-2.8c-0.6-1.2-0.9-2.5-0.9-3.9c0-1.6,0.3-2.9,1-4.1
						c0.6-1.2,1.5-2.1,2.7-2.8c1.1-0.7,2.4-1,3.9-1c1.6,0,3,0.3,4.1,1s2,1.6,2.6,2.8c0.6,1.2,0.9,2.5,0.9,3.9c0,1.5-0.3,2.9-1,4.1
						c-0.6,1.2-1.5,2.1-2.6,2.8C311.4,321.5,310.1,321.8,308.6,321.8z M308.5,318.9c0.8,0,1.4-0.2,2-0.5c0.6-0.4,1.1-0.9,1.4-1.7
						c0.4-0.7,0.5-1.7,0.5-2.8c0-0.9-0.2-1.7-0.5-2.5s-0.8-1.3-1.4-1.7c-0.6-0.4-1.3-0.6-2.1-0.6c-0.7,0-1.4,0.2-2,0.6
						c-0.6,0.4-1.1,1-1.5,1.7c-0.4,0.7-0.6,1.6-0.6,2.6c0,0.9,0.2,1.8,0.5,2.5c0.3,0.7,0.8,1.3,1.4,1.7
						C307,318.7,307.7,318.9,308.5,318.9z"/>
				</g>
				<g class="st7">
					<path class="st8" d="M208.7,334.7c-0.5-0.2-0.9-0.3-1.2-0.4c-0.3-0.1-0.6-0.1-0.9-0.2s-0.6-0.1-1-0.1c-0.7,0-1.3,0.2-1.9,0.6
						c-0.6,0.4-1.1,1-1.4,1.7c-0.4,0.7-0.5,1.6-0.5,2.6c0,0.7,0.1,1.4,0.3,2c0.2,0.6,0.5,1.1,0.8,1.5c0.3,0.4,0.7,0.8,1.2,1
						c0.5,0.2,1,0.4,1.5,0.4c0.6,0,1.1-0.1,1.6-0.2c0.5-0.1,1-0.3,1.4-0.5l1.3,2.6c-0.4,0.2-0.8,0.4-1.3,0.5s-1,0.3-1.5,0.3
						c-0.5,0.1-1,0.1-1.5,0.1c-1.2,0-2.3-0.2-3.2-0.6c-0.9-0.4-1.7-0.9-2.3-1.6c-0.6-0.7-1.1-1.5-1.4-2.5c-0.3-0.9-0.5-2-0.5-3.1
						c0-1.1,0.2-2.2,0.5-3.2s0.9-1.8,1.5-2.5c0.7-0.7,1.5-1.2,2.4-1.6c0.9-0.4,1.9-0.6,3-0.6c0.4,0,0.8,0,1.3,0.1
						c0.5,0.1,1,0.2,1.5,0.4c0.5,0.2,1,0.4,1.4,0.6L208.7,334.7z"/>
					<path class="st8" d="M211.7,346.5v-15h9.4l0.4,2.7h-6.4v3.4h4.8l0.4,2.7h-5.1v3.5h6.9l0.4,2.7H211.7z"/>
					<path class="st8" d="M229.8,331.5c1.1,0,2.1,0.2,3,0.5c0.9,0.3,1.6,0.9,2.2,1.6c0.5,0.7,0.8,1.6,0.8,2.8c0,0.9-0.2,1.7-0.6,2.4
						s-1,1.2-1.6,1.6l3.5,6.2h-3.9l-2.8-5.2c-0.2,0-0.4,0-0.6,0c-0.2,0-0.5,0-0.7,0h-1.3v5.2h-3.4v-15H229.8z M227.8,334.3v4.2h2
						c0.5,0,0.9-0.1,1.3-0.2c0.4-0.2,0.7-0.4,0.9-0.7c0.2-0.3,0.3-0.7,0.3-1.2c0-0.5-0.1-0.9-0.3-1.2c-0.2-0.3-0.5-0.6-0.9-0.7
						s-0.8-0.2-1.4-0.2H227.8z"/>
					<path class="st8" d="M238.8,346.5v-15h9.4l0.4,2.7h-6.4v3.4h4.8l0.4,2.7h-5.1v3.5h6.9l0.4,2.7H238.8z"/>
					<path class="st8" d="M251.4,346.5v-15h5.5c1,0,2,0.1,2.8,0.4s1.5,0.7,2,1.4c0.5,0.6,0.7,1.4,0.7,2.5c0,0.6-0.2,1.1-0.5,1.5
						c-0.3,0.4-0.7,0.8-1,1.2c0.6,0.4,1.1,0.9,1.6,1.5c0.4,0.6,0.6,1.3,0.6,2.1c0,0.8-0.2,1.4-0.5,2c-0.3,0.6-0.7,1-1.3,1.4
						c-0.5,0.4-1.2,0.6-1.8,0.8c-0.7,0.2-1.5,0.3-2.3,0.3H251.4z M254.9,334.3v3.1h1.5c0.5,0,0.9-0.1,1.3-0.2
						c0.4-0.1,0.7-0.3,0.9-0.5c0.2-0.2,0.4-0.5,0.4-0.8c0-0.4-0.1-0.7-0.3-0.9c-0.2-0.2-0.4-0.4-0.8-0.5c-0.3-0.1-0.7-0.2-1.2-0.2
						H254.9z M254.9,340.2v3.6h2.4c0.5,0,0.9-0.1,1.2-0.2c0.3-0.1,0.6-0.3,0.8-0.6c0.2-0.2,0.3-0.6,0.3-0.9c0-0.6-0.2-1.1-0.6-1.4
						c-0.4-0.3-1-0.5-1.6-0.5H254.9z"/>
					<path class="st8" d="M270.6,331.5c1.1,0,2.1,0.2,3,0.5c0.9,0.3,1.6,0.9,2.2,1.6c0.5,0.7,0.8,1.6,0.8,2.8c0,0.9-0.2,1.7-0.6,2.4
						s-1,1.2-1.6,1.6l3.5,6.2H274l-2.8-5.2c-0.2,0-0.4,0-0.6,0c-0.2,0-0.5,0-0.7,0h-1.3v5.2h-3.4v-15H270.6z M268.6,334.3v4.2h2
						c0.5,0,0.9-0.1,1.3-0.2c0.4-0.2,0.7-0.4,0.9-0.7c0.2-0.3,0.3-0.7,0.3-1.2c0-0.5-0.1-0.9-0.3-1.2c-0.2-0.3-0.5-0.6-0.9-0.7
						s-0.8-0.2-1.4-0.2H268.6z"/>
					<path class="st8" d="M286.9,331.5l5.7,14.8l-3.4,0.4l-1.2-3.4h-5.4l-1.2,3.2H278l5.7-15H286.9z M285.2,335.9l-1.7,4.6h3.5
						L285.2,335.9z"/>
					<path class="st8" d="M304.6,346.5h-10.3v-15h3.4v12.3h6.5L304.6,346.5z"/>
				</g>
			</g>
		</g>
		<g class="st7">
			<path class="st8" d="M4820.3,3490.8l3.1,8.1l-0.6,0.1l-1-2.6h-3.5l-0.9,2.6h-0.6l3-8.2H4820.3z M4820.1,3491.6l-1.6,4.3h3.2
				L4820.1,3491.6z"/>
			<path class="st8" d="M4825.1,3496.2c0,0.5,0.1,0.9,0.3,1.3c0.2,0.4,0.5,0.7,0.8,0.9c0.3,0.2,0.7,0.3,1.2,0.3
				c0.5,0,0.9-0.1,1.2-0.3c0.3-0.2,0.6-0.5,0.8-0.9s0.3-0.8,0.3-1.3v-5.3h0.6v5.3c0,0.6-0.1,1.1-0.3,1.5c-0.2,0.5-0.5,0.8-1,1.1
				c-0.4,0.3-0.9,0.4-1.6,0.4c-0.6,0-1.1-0.1-1.6-0.4c-0.4-0.3-0.8-0.6-1-1.1c-0.2-0.5-0.3-1-0.3-1.5v-5.3h0.6V3496.2z"/>
			<path class="st8" d="M4837.5,3491.3h-2.8v7.7h-0.6v-7.7h-2.8v-0.5h6.1L4837.5,3491.3z"/>
			<path class="st8" d="M4841.7,3499.2c-0.7,0-1.3-0.2-1.9-0.5s-1-0.9-1.3-1.5s-0.5-1.4-0.5-2.2c0-0.8,0.2-1.6,0.5-2.2
				c0.3-0.6,0.8-1.2,1.3-1.5s1.2-0.6,1.9-0.6c0.7,0,1.3,0.2,1.9,0.5c0.5,0.4,1,0.9,1.3,1.5c0.3,0.6,0.5,1.4,0.5,2.2
				c0,0.8-0.2,1.6-0.5,2.2c-0.3,0.6-0.8,1.2-1.3,1.5C4843.1,3499,4842.4,3499.2,4841.7,3499.2z M4841.7,3498.7
				c0.6,0,1.1-0.2,1.6-0.5c0.5-0.3,0.8-0.8,1.1-1.3c0.3-0.6,0.4-1.2,0.4-2c0-0.7-0.1-1.4-0.4-1.9s-0.6-1-1-1.3
				c-0.4-0.3-0.9-0.5-1.5-0.5c-0.6,0-1.1,0.2-1.6,0.5c-0.5,0.3-0.8,0.8-1.1,1.3c-0.3,0.6-0.4,1.2-0.4,2c0,0.7,0.1,1.4,0.4,1.9
				c0.3,0.6,0.6,1,1,1.3C4840.6,3498.5,4841.1,3498.7,4841.7,3498.7z"/>
			<path class="st8" d="M4849,3490.8c0.6,0,1.1,0.1,1.5,0.2c0.4,0.1,0.8,0.4,1,0.7s0.4,0.8,0.4,1.4c0,0.6-0.1,1-0.4,1.3
				c-0.3,0.3-0.6,0.6-1.1,0.8l2.1,3.7h-0.7l-2-3.6c-0.2,0-0.4,0.1-0.5,0.1c-0.2,0-0.4,0-0.6,0h-1.2v3.4h-0.6v-8.2H4849z
				 M4847.7,3491.3v3.8h1.3c0.4,0,0.8-0.1,1.2-0.2c0.4-0.1,0.7-0.3,0.9-0.6c0.2-0.3,0.4-0.7,0.4-1.1c0-0.5-0.1-0.8-0.3-1.1
				c-0.2-0.3-0.5-0.5-0.8-0.6s-0.7-0.2-1.2-0.2H4847.7z"/>
			<path class="st8" d="M4853.8,3499v-8.2h4.2l0.1,0.5h-3.6v3.3h2.9l0.1,0.5h-2.9v3.5h3.8l0.1,0.5H4853.8z"/>
			<path class="st8" d="M4862.7,3494.9h2.4v3.7c-0.1,0.1-0.3,0.2-0.6,0.3c-0.2,0.1-0.5,0.1-0.7,0.2s-0.5,0.1-0.7,0.1
				c-0.8,0-1.5-0.2-2.1-0.6c-0.6-0.4-1.1-0.9-1.4-1.5c-0.3-0.6-0.5-1.4-0.5-2.1c0-0.6,0.1-1.2,0.3-1.7s0.5-1,0.8-1.4
				c0.4-0.4,0.8-0.7,1.3-0.9c0.5-0.2,1-0.3,1.6-0.3c0.2,0,0.4,0,0.6,0c0.3,0,0.5,0.1,0.8,0.1c0.3,0.1,0.4,0.1,0.6,0.3l-0.2,0.4
				c-0.2-0.1-0.3-0.1-0.5-0.2s-0.3-0.1-0.5-0.1c-0.2,0-0.4,0-0.7,0c-0.5,0-1,0.1-1.4,0.3c-0.4,0.2-0.8,0.5-1.1,0.8
				c-0.3,0.3-0.5,0.7-0.7,1.2s-0.3,1-0.3,1.5c0,0.7,0.1,1.3,0.4,1.9c0.3,0.6,0.7,1,1.2,1.3c0.5,0.3,1.1,0.5,1.7,0.5
				c0.3,0,0.6,0,0.8-0.1c0.2-0.1,0.5-0.1,0.7-0.2v-3h-1.8L4862.7,3494.9z"/>
			<path class="st8" d="M4867.3,3496.2c0,0.5,0.1,0.9,0.3,1.3c0.2,0.4,0.5,0.7,0.8,0.9c0.3,0.2,0.7,0.3,1.2,0.3
				c0.5,0,0.9-0.1,1.2-0.3c0.3-0.2,0.6-0.5,0.8-0.9s0.3-0.8,0.3-1.3v-5.3h0.6v5.3c0,0.6-0.1,1.1-0.3,1.5c-0.2,0.5-0.5,0.8-1,1.1
				c-0.4,0.3-0.9,0.4-1.6,0.4c-0.6,0-1.1-0.1-1.6-0.4c-0.4-0.3-0.8-0.6-1-1.1c-0.2-0.5-0.3-1-0.3-1.5v-5.3h0.6V3496.2z"/>
			<path class="st8" d="M4879.2,3499h-4.6v-8.2h0.6v7.7h3.9L4879.2,3499z"/>
			<path class="st8" d="M4882.9,3490.8l3.1,8.1l-0.6,0.1l-1-2.6h-3.5l-0.9,2.6h-0.6l3-8.2H4882.9z M4882.6,3491.6l-1.6,4.3h3.2
				L4882.6,3491.6z"/>
			<path class="st8" d="M4892,3491.5c-0.2-0.1-0.3-0.1-0.5-0.2c-0.2-0.1-0.3-0.1-0.5-0.1c-0.2,0-0.4,0-0.7,0c-0.6,0-1.1,0.2-1.5,0.5
				c-0.5,0.3-0.8,0.7-1.1,1.3s-0.4,1.2-0.4,2c0,0.5,0.1,1,0.2,1.4c0.1,0.4,0.3,0.8,0.6,1.2s0.6,0.6,0.9,0.8c0.4,0.2,0.8,0.3,1.2,0.3
				c0.4,0,0.8,0,1.1-0.1s0.5-0.2,0.7-0.3l0.3,0.4c-0.1,0.1-0.3,0.2-0.6,0.2c-0.2,0.1-0.5,0.1-0.7,0.2c-0.3,0-0.5,0.1-0.7,0.1
				c-0.6,0-1.2-0.1-1.6-0.3c-0.5-0.2-0.8-0.5-1.1-0.9c-0.3-0.4-0.5-0.8-0.7-1.3s-0.2-1-0.2-1.6c0-0.6,0.1-1.2,0.3-1.7s0.4-1,0.7-1.4
				c0.3-0.4,0.7-0.7,1.2-0.9s1-0.3,1.6-0.3c0.2,0,0.4,0,0.6,0c0.2,0,0.5,0.1,0.7,0.1c0.2,0.1,0.4,0.1,0.6,0.3L4892,3491.5z
				 M4890,3498.8h0.5l-0.3,0.8c0.2,0,0.4,0.1,0.6,0.2c0.2,0.1,0.3,0.2,0.4,0.4s0.1,0.3,0.1,0.4c0,0.2-0.1,0.4-0.2,0.5
				s-0.3,0.3-0.5,0.4c-0.2,0.1-0.4,0.1-0.7,0.1c-0.1,0-0.3,0-0.5-0.1s-0.3-0.1-0.4-0.2l0.2-0.4c0.1,0,0.2,0.1,0.3,0.1
				c0.1,0,0.3,0.1,0.4,0.1c0.2,0,0.5-0.1,0.6-0.2c0.2-0.1,0.2-0.2,0.2-0.4c0-0.1,0-0.2-0.1-0.3c-0.1-0.1-0.2-0.2-0.4-0.3
				c-0.2-0.1-0.4-0.1-0.6-0.1L4890,3498.8z"/>
			<path class="st8" d="M4896.1,3490.8l3.1,8.1l-0.6,0.1l-1-2.6h-3.5l-0.9,2.6h-0.6l3-8.2H4896.1z M4897.5,3488.8
				c0,0.2,0,0.5-0.1,0.6c-0.1,0.2-0.2,0.3-0.4,0.4s-0.3,0.1-0.5,0.1c-0.1,0-0.3,0-0.4-0.1c-0.1-0.1-0.2-0.1-0.3-0.3
				c-0.1-0.1-0.2-0.2-0.3-0.3c-0.1-0.1-0.2-0.1-0.3-0.1c-0.2,0-0.3,0.1-0.4,0.2c-0.1,0.1-0.1,0.3-0.1,0.5h-0.5c0-0.3,0-0.5,0.1-0.6
				c0.1-0.2,0.2-0.3,0.4-0.4c0.2-0.1,0.3-0.1,0.5-0.1c0.2,0,0.3,0,0.5,0.1c0.1,0.1,0.2,0.1,0.3,0.3c0.1,0.1,0.2,0.2,0.3,0.3
				c0.1,0.1,0.2,0.1,0.3,0.1c0.2,0,0.3-0.1,0.4-0.2c0.1-0.1,0.1-0.3,0.2-0.5H4897.5z M4895.9,3491.6l-1.6,4.3h3.2L4895.9,3491.6z"/>
			<path class="st8" d="M4903.4,3499.2c-0.7,0-1.3-0.2-1.9-0.5s-1-0.9-1.3-1.5s-0.5-1.4-0.5-2.2c0-0.8,0.2-1.6,0.5-2.2
				c0.3-0.6,0.8-1.2,1.3-1.5s1.2-0.6,1.9-0.6c0.7,0,1.3,0.2,1.9,0.5c0.5,0.4,1,0.9,1.3,1.5c0.3,0.6,0.5,1.4,0.5,2.2
				c0,0.8-0.2,1.6-0.5,2.2c-0.3,0.6-0.8,1.2-1.3,1.5C4904.8,3499,4904.2,3499.2,4903.4,3499.2z M4903.4,3498.7
				c0.6,0,1.1-0.2,1.6-0.5c0.5-0.3,0.8-0.8,1.1-1.3c0.3-0.6,0.4-1.2,0.4-2c0-0.7-0.1-1.4-0.4-1.9s-0.6-1-1-1.3
				c-0.4-0.3-0.9-0.5-1.5-0.5c-0.6,0-1.1,0.2-1.6,0.5c-0.5,0.3-0.8,0.8-1.1,1.3c-0.3,0.6-0.4,1.2-0.4,2c0,0.7,0.1,1.4,0.4,1.9
				c0.3,0.6,0.6,1,1,1.3C4902.3,3498.5,4902.9,3498.7,4903.4,3498.7z"/>
		</g>
		<g class="st7">
			<path class="st8" d="M5023.2,3499v-8.2h4.2l0.1,0.5h-3.6v3.3h2.9l0.1,0.5h-2.9v3.5h3.8l0.1,0.5H5023.2z"/>
			<path class="st8" d="M5032.1,3496.1l-2.4-3.8v6.7h-0.6v-8.2h0.3l2.9,4.3l2.8-4.3h0.3v8.2h-0.6v-6.8l-2.4,3.8L5032.1,3496.1z"/>
			<path class="st8" d="M5037.6,3499v-8.2h2c0.6,0,1.1,0.1,1.5,0.2c0.4,0.2,0.8,0.4,1,0.8s0.4,0.8,0.4,1.4c0,0.4-0.1,0.8-0.2,1.1
				c-0.2,0.3-0.4,0.6-0.7,0.8c-0.3,0.2-0.6,0.4-1,0.5c-0.4,0.1-0.8,0.2-1.2,0.2h-1.2v3.2H5037.6z M5038.2,3491.3v4h1.4
				c0.4,0,0.8-0.1,1.2-0.2c0.4-0.2,0.6-0.4,0.8-0.7c0.2-0.3,0.3-0.7,0.3-1.1c0-0.5-0.1-0.9-0.3-1.1c-0.2-0.3-0.4-0.5-0.8-0.6
				c-0.3-0.1-0.7-0.2-1.2-0.2H5038.2z"/>
			<path class="st8" d="M5046.5,3490.8l3.1,8.1l-0.6,0.1l-1-2.6h-3.5l-0.9,2.6h-0.6l3-8.2H5046.5z M5046.2,3491.6l-1.6,4.3h3.2
				L5046.2,3491.6z"/>
			<path class="st8" d="M5055.9,3491.3h-2.8v7.7h-0.6v-7.7h-2.8v-0.5h6.1L5055.9,3491.3z"/>
			<path class="st8" d="M5057.1,3499v-8.2h0.6v8.2H5057.1z"/>
			<path class="st8" d="M5062.4,3490.8l3.1,8.1l-0.6,0.1l-1-2.6h-3.5l-0.9,2.6h-0.6l3-8.2H5062.4z M5062.1,3491.6l-1.6,4.3h3.2
				L5062.1,3491.6z"/>
		</g>
		<g>
			<g class="st7">
				<path class="st8" d="M4980.1,3456v-15h3.3l5.3,7.6l1.1,1.5l0-9h3.4v15h-3.3l-5.5-7.7l-0.9-1.2v8.9H4980.1z"/>
				<path class="st8" d="M4996.4,3456v-15h9.4l0.4,2.7h-6.4v3.4h4.8l0.4,2.7h-5.1v3.5h6.9l0.4,2.7H4996.4z"/>
				<path class="st8" d="M5012.3,3450.2c0,0.7,0.1,1.3,0.4,1.8s0.6,0.8,1.1,1.1c0.5,0.2,1,0.4,1.5,0.4c0.6,0,1.1-0.1,1.5-0.4
					c0.5-0.2,0.8-0.6,1.1-1.1c0.3-0.5,0.4-1.1,0.4-1.8v-9.2h3.4v9.4c0,1.2-0.3,2.2-0.8,3.1c-0.5,0.9-1.3,1.6-2.2,2
					c-1,0.5-2.1,0.7-3.4,0.7c-1.3,0-2.4-0.2-3.4-0.7c-1-0.5-1.7-1.2-2.3-2c-0.5-0.9-0.8-1.9-0.8-3.1v-9.4h3.5V3450.2z"/>
				<path class="st8" d="M5030.3,3441c1.1,0,2.1,0.2,3,0.5c0.9,0.3,1.6,0.9,2.2,1.6s0.8,1.6,0.8,2.8c0,0.9-0.2,1.7-0.6,2.4
					c-0.4,0.7-1,1.2-1.6,1.6l3.5,6.2h-3.9l-2.8-5.2c-0.2,0-0.4,0-0.6,0s-0.5,0-0.7,0h-1.3v5.2h-3.4v-15H5030.3z M5028.2,3443.8v4.2
					h2c0.5,0,0.9-0.1,1.3-0.2c0.4-0.2,0.7-0.4,0.9-0.7c0.2-0.3,0.3-0.7,0.3-1.2c0-0.5-0.1-0.9-0.3-1.2c-0.2-0.3-0.5-0.6-0.9-0.7
					s-0.8-0.2-1.4-0.2H5028.2z"/>
				<path class="st8" d="M5045.7,3456.3c-1.5,0-2.9-0.3-4-1s-2-1.6-2.6-2.8c-0.6-1.2-0.9-2.5-0.9-3.9c0-1.6,0.3-2.9,1-4.1
					c0.6-1.2,1.5-2.1,2.7-2.8c1.1-0.7,2.4-1,3.9-1c1.6,0,3,0.3,4.1,1s2,1.6,2.6,2.8c0.6,1.2,0.9,2.5,0.9,3.9c0,1.5-0.3,2.9-1,4.1
					c-0.6,1.2-1.5,2.1-2.6,2.8C5048.5,3456,5047.2,3456.3,5045.7,3456.3z M5045.7,3438.4l1.3,1.4l3.2-0.4l-3.6-3.6h-1.9l-3.6,3.6
					l3.3,0.4L5045.7,3438.4z M5045.6,3453.4c0.8,0,1.4-0.2,2-0.5c0.6-0.4,1.1-0.9,1.4-1.7c0.4-0.7,0.5-1.7,0.5-2.8
					c0-0.9-0.2-1.7-0.5-2.5c-0.3-0.7-0.8-1.3-1.4-1.7c-0.6-0.4-1.3-0.6-2.1-0.6c-0.7,0-1.4,0.2-2,0.6c-0.6,0.4-1.1,1-1.5,1.7
					c-0.4,0.7-0.6,1.6-0.6,2.6c0,0.9,0.2,1.8,0.5,2.5c0.3,0.7,0.8,1.3,1.4,1.7C5044.1,3453.2,5044.8,3453.4,5045.6,3453.4z"/>
				<path class="st8" d="M5055.4,3456v-15h3.3l5.3,7.6l1.1,1.5l0-9h3.4v15h-3.3l-5.5-7.7l-0.9-1.2v8.9H5055.4z"/>
				<path class="st8" d="M5071.8,3456v-15h3.4v15H5071.8z"/>
				<path class="st8" d="M5084.9,3456.3c-1.5,0-2.9-0.3-4-1s-2-1.6-2.6-2.8c-0.6-1.2-0.9-2.5-0.9-3.9c0-1.6,0.3-2.9,1-4.1
					c0.6-1.2,1.5-2.1,2.7-2.8c1.1-0.7,2.4-1,3.9-1c1.6,0,3,0.3,4.1,1s2,1.6,2.6,2.8c0.6,1.2,0.9,2.5,0.9,3.9c0,1.5-0.3,2.9-1,4.1
					c-0.6,1.2-1.5,2.1-2.6,2.8C5087.8,3456,5086.4,3456.3,5084.9,3456.3z M5084.9,3453.4c0.8,0,1.4-0.2,2-0.5
					c0.6-0.4,1.1-0.9,1.4-1.7c0.4-0.7,0.5-1.7,0.5-2.8c0-0.9-0.2-1.7-0.5-2.5c-0.3-0.7-0.8-1.3-1.4-1.7c-0.6-0.4-1.3-0.6-2.1-0.6
					c-0.7,0-1.4,0.2-2,0.6c-0.6,0.4-1.1,1-1.5,1.7c-0.4,0.7-0.6,1.6-0.6,2.6c0,0.9,0.2,1.8,0.5,2.5c0.3,0.7,0.8,1.3,1.4,1.7
					C5083.4,3453.2,5084.1,3453.4,5084.9,3453.4z"/>
				<path class="st8" d="M5094.8,3452.4c0.3,0.1,0.6,0.3,1,0.5c0.4,0.2,0.8,0.3,1.3,0.4c0.5,0.1,0.9,0.1,1.3,0.1
					c0.5,0,0.9-0.1,1.3-0.2s0.6-0.3,0.8-0.5c0.2-0.2,0.3-0.4,0.3-0.7c0-0.3-0.1-0.5-0.4-0.7c-0.3-0.2-0.6-0.4-1-0.7
					c-0.4-0.2-0.8-0.5-1.2-0.7c-0.5-0.3-1-0.6-1.5-1s-1-0.7-1.5-1.1c-0.4-0.4-0.8-0.9-1.1-1.4c-0.3-0.5-0.4-1-0.4-1.6
					c0-0.8,0.2-1.5,0.6-2.1c0.4-0.6,1-1.1,1.8-1.5c0.8-0.4,1.8-0.5,2.9-0.5c0.7,0,1.5,0.1,2.3,0.3c0.8,0.2,1.5,0.5,2,0.8l-1.1,2.5
					c-0.4-0.2-0.8-0.3-1.1-0.4c-0.3-0.1-0.7-0.2-1-0.3c-0.3-0.1-0.7-0.1-1.1-0.1c-0.5,0-1,0.1-1.3,0.4c-0.3,0.2-0.5,0.5-0.5,0.9
					c0,0.3,0.1,0.6,0.4,0.8s0.5,0.5,0.9,0.6c0.4,0.2,0.8,0.4,1.2,0.7c0.5,0.3,1.1,0.6,1.6,1s1,0.7,1.5,1.1c0.4,0.4,0.8,0.8,1.1,1.3
					c0.3,0.5,0.4,1,0.4,1.7c0,0.8-0.2,1.5-0.7,2.2c-0.5,0.6-1.1,1.1-2,1.5s-1.9,0.6-3.1,0.6c-0.4,0-0.7,0-1.2-0.1
					c-0.4-0.1-0.9-0.2-1.3-0.3c-0.4-0.1-0.9-0.2-1.2-0.4c-0.4-0.1-0.7-0.3-1-0.5L5094.8,3452.4z"/>
				<path class="st8" d="M5111.2,3451.3h-6l-0.2-2.7h6L5111.2,3451.3z"/>
			</g>
			<g class="st7">
				<path class="st8" d="M5001,3481v-15h9.4l0.4,2.7h-6.4v3.4h4.8l0.4,2.7h-5.1v3.5h6.9l0.4,2.7H5001z"/>
				<path class="st8" d="M5013.7,3477.4c0.3,0.1,0.6,0.3,1,0.5c0.4,0.2,0.8,0.3,1.3,0.4s0.9,0.1,1.3,0.1c0.5,0,0.9-0.1,1.3-0.2
					s0.6-0.3,0.8-0.5c0.2-0.2,0.3-0.4,0.3-0.7c0-0.3-0.1-0.5-0.4-0.7c-0.3-0.2-0.6-0.4-1-0.7c-0.4-0.2-0.8-0.5-1.2-0.7
					c-0.5-0.3-1-0.6-1.5-1c-0.5-0.3-1-0.7-1.5-1.1c-0.4-0.4-0.8-0.9-1.1-1.4c-0.3-0.5-0.4-1-0.4-1.6c0-0.8,0.2-1.5,0.6-2.1
					c0.4-0.6,1-1.1,1.8-1.5c0.8-0.4,1.8-0.5,2.9-0.5c0.7,0,1.5,0.1,2.3,0.3c0.8,0.2,1.5,0.5,2,0.8l-1.1,2.5
					c-0.4-0.2-0.8-0.3-1.1-0.4c-0.3-0.1-0.7-0.2-1-0.3s-0.7-0.1-1.1-0.1c-0.5,0-1,0.1-1.3,0.4c-0.3,0.2-0.5,0.5-0.5,0.9
					c0,0.3,0.1,0.6,0.4,0.8c0.2,0.2,0.5,0.5,0.9,0.6c0.4,0.2,0.8,0.4,1.2,0.7c0.5,0.3,1.1,0.6,1.6,1c0.5,0.3,1,0.7,1.5,1.1
					c0.4,0.4,0.8,0.8,1.1,1.3c0.3,0.5,0.4,1,0.4,1.7c0,0.8-0.2,1.5-0.7,2.2s-1.1,1.1-2,1.5s-1.9,0.6-3.1,0.6c-0.4,0-0.7,0-1.2-0.1
					s-0.9-0.2-1.3-0.3c-0.4-0.1-0.9-0.2-1.2-0.4c-0.4-0.1-0.7-0.3-1-0.5L5013.7,3477.4z"/>
				<path class="st8" d="M5025.1,3481v-15h5.5c1.1,0,2.1,0.2,3,0.5c0.9,0.4,1.6,0.9,2.2,1.7s0.8,1.7,0.8,2.9c0,0.9-0.2,1.6-0.5,2.3
					c-0.3,0.6-0.8,1.2-1.4,1.6c-0.6,0.4-1.3,0.7-2,0.9c-0.7,0.2-1.5,0.3-2.3,0.3h-1.9v4.8H5025.1z M5028.5,3468.8v4.7h2
					c0.5,0,0.9-0.1,1.3-0.3c0.4-0.2,0.7-0.4,0.9-0.8c0.2-0.3,0.3-0.7,0.3-1.2c0-0.5-0.1-1-0.3-1.4s-0.5-0.6-0.9-0.8
					c-0.4-0.2-0.8-0.3-1.4-0.3H5028.5z"/>
				<path class="st8" d="M5038.6,3481v-15h9.4l0.4,2.7h-6.4v3.4h4.8l0.4,2.7h-5.1v3.5h6.9l0.4,2.7H5038.6z"/>
				<path class="st8" d="M5061.6,3481h-10.3v-15h3.4v12.3h6.5L5061.6,3481z"/>
				<path class="st8" d="M5072.3,3481v-6.1h-5.5v6.1h-3.4v-15l3.4-0.1v6.3h5.5v-6.1h3.4v15H5072.3z"/>
				<path class="st8" d="M5085.4,3481.3c-1.5,0-2.9-0.3-4-1s-2-1.6-2.6-2.8c-0.6-1.2-0.9-2.5-0.9-3.9c0-1.6,0.3-2.9,1-4.1
					c0.6-1.2,1.5-2.1,2.7-2.8c1.1-0.7,2.4-1,3.9-1c1.6,0,3,0.3,4.1,1c1.1,0.7,2,1.6,2.6,2.8c0.6,1.2,0.9,2.5,0.9,3.9
					c0,1.5-0.3,2.9-1,4.1c-0.6,1.2-1.5,2.1-2.6,2.8C5088.3,3481,5086.9,3481.3,5085.4,3481.3z M5085.4,3478.4c0.8,0,1.4-0.2,2-0.5
					c0.6-0.4,1.1-0.9,1.4-1.7c0.4-0.7,0.5-1.7,0.5-2.8c0-0.9-0.2-1.7-0.5-2.5s-0.8-1.3-1.4-1.7c-0.6-0.4-1.3-0.6-2.1-0.6
					c-0.7,0-1.4,0.2-2,0.6c-0.6,0.4-1.1,1-1.5,1.7c-0.4,0.7-0.6,1.6-0.6,2.6c0,0.9,0.2,1.8,0.5,2.5s0.8,1.3,1.4,1.7
					C5083.9,3478.2,5084.6,3478.4,5085.4,3478.4z"/>
			</g>
			<g transform="matrix(1, 0, 0, 1, 4608.5, 3134.5)">
				<g class="st7">
					<path class="st8" d="M371.6,321.5v-15h3.3l5.3,7.6l1.1,1.5l0-9h3.4v15h-3.3l-5.5-7.7l-0.9-1.2v8.9H371.6z"/>
					<path class="st8" d="M387.9,321.5v-15h9.4l0.4,2.7h-6.4v3.4h4.8l0.4,2.7h-5.1v3.5h6.9l0.4,2.7H387.9z"/>
					<path class="st8" d="M403.8,315.7c0,0.7,0.1,1.3,0.4,1.8s0.6,0.8,1.1,1.1c0.5,0.2,1,0.4,1.5,0.4c0.6,0,1.1-0.1,1.5-0.4
						c0.5-0.2,0.8-0.6,1.1-1.1c0.3-0.5,0.4-1.1,0.4-1.8v-9.2h3.4v9.4c0,1.2-0.3,2.2-0.8,3.1c-0.5,0.9-1.3,1.6-2.2,2
						c-1,0.5-2.1,0.7-3.4,0.7c-1.3,0-2.4-0.2-3.4-0.7c-1-0.5-1.7-1.2-2.3-2c-0.5-0.9-0.8-1.9-0.8-3.1v-9.4h3.5V315.7z"/>
					<path class="st8" d="M421.8,306.5c1.1,0,2.1,0.2,3,0.5c0.9,0.3,1.6,0.9,2.2,1.6s0.8,1.6,0.8,2.8c0,0.9-0.2,1.7-0.6,2.4
						c-0.4,0.7-1,1.2-1.6,1.6l3.5,6.2h-3.9l-2.8-5.2c-0.2,0-0.4,0-0.6,0s-0.5,0-0.7,0h-1.3v5.2h-3.4v-15H421.8z M419.7,309.3v4.2h2
						c0.5,0,0.9-0.1,1.3-0.2c0.4-0.2,0.7-0.4,0.9-0.7c0.2-0.3,0.3-0.7,0.3-1.2c0-0.5-0.1-0.9-0.3-1.2c-0.2-0.3-0.5-0.6-0.9-0.7
						s-0.8-0.2-1.4-0.2H419.7z"/>
					<path class="st8" d="M437.2,321.8c-1.5,0-2.9-0.3-4-1s-2-1.6-2.6-2.8c-0.6-1.2-0.9-2.5-0.9-3.9c0-1.6,0.3-2.9,1-4.1
						c0.6-1.2,1.5-2.1,2.7-2.8c1.1-0.7,2.4-1,3.9-1c1.6,0,3,0.3,4.1,1s2,1.6,2.6,2.8c0.6,1.2,0.9,2.5,0.9,3.9c0,1.5-0.3,2.9-1,4.1
						c-0.6,1.2-1.5,2.1-2.6,2.8C440,321.5,438.7,321.8,437.2,321.8z M437.2,303.9l1.3,1.4l3.2-0.4l-3.6-3.6h-1.9l-3.6,3.6l3.3,0.4
						L437.2,303.9z M437.1,318.9c0.8,0,1.4-0.2,2-0.5c0.6-0.4,1.1-0.9,1.4-1.7c0.4-0.7,0.5-1.7,0.5-2.8c0-0.9-0.2-1.7-0.5-2.5
						c-0.3-0.7-0.8-1.3-1.4-1.7c-0.6-0.4-1.3-0.6-2.1-0.6c-0.7,0-1.4,0.2-2,0.6c-0.6,0.4-1.1,1-1.5,1.7c-0.4,0.7-0.6,1.6-0.6,2.6
						c0,0.9,0.2,1.8,0.5,2.5c0.3,0.7,0.8,1.3,1.4,1.7C435.6,318.7,436.3,318.9,437.1,318.9z"/>
					<path class="st8" d="M446.9,321.5v-15h3.3l5.3,7.6l1.1,1.5l0-9h3.4v15h-3.3l-5.5-7.7l-0.9-1.2v8.9H446.9z"/>
					<path class="st8" d="M463.3,321.5v-15h3.4v15H463.3z"/>
					<path class="st8" d="M476.4,321.8c-1.5,0-2.9-0.3-4-1s-2-1.6-2.6-2.8c-0.6-1.2-0.9-2.5-0.9-3.9c0-1.6,0.3-2.9,1-4.1
						c0.6-1.2,1.5-2.1,2.7-2.8c1.1-0.7,2.4-1,3.9-1c1.6,0,3,0.3,4.1,1s2,1.6,2.6,2.8c0.6,1.2,0.9,2.5,0.9,3.9c0,1.5-0.3,2.9-1,4.1
						c-0.6,1.2-1.5,2.1-2.6,2.8C479.3,321.5,477.9,321.8,476.4,321.8z M476.4,318.9c0.8,0,1.4-0.2,2-0.5c0.6-0.4,1.1-0.9,1.4-1.7
						c0.4-0.7,0.5-1.7,0.5-2.8c0-0.9-0.2-1.7-0.5-2.5c-0.3-0.7-0.8-1.3-1.4-1.7c-0.6-0.4-1.3-0.6-2.1-0.6c-0.7,0-1.4,0.2-2,0.6
						c-0.6,0.4-1.1,1-1.5,1.7c-0.4,0.7-0.6,1.6-0.6,2.6c0,0.9,0.2,1.8,0.5,2.5c0.3,0.7,0.8,1.3,1.4,1.7
						C474.9,318.7,475.6,318.9,476.4,318.9z"/>
					<path class="st8" d="M486.3,317.9c0.3,0.1,0.6,0.3,1,0.5c0.4,0.2,0.8,0.3,1.3,0.4c0.5,0.1,0.9,0.1,1.3,0.1
						c0.5,0,0.9-0.1,1.3-0.2s0.6-0.3,0.8-0.5c0.2-0.2,0.3-0.4,0.3-0.7c0-0.3-0.1-0.5-0.4-0.7c-0.3-0.2-0.6-0.4-1-0.7
						c-0.4-0.2-0.8-0.5-1.2-0.7c-0.5-0.3-1-0.6-1.5-1s-1-0.7-1.5-1.1c-0.4-0.4-0.8-0.9-1.1-1.4c-0.3-0.5-0.4-1-0.4-1.6
						c0-0.8,0.2-1.5,0.6-2.1c0.4-0.6,1-1.1,1.8-1.5c0.8-0.4,1.8-0.5,2.9-0.5c0.7,0,1.5,0.1,2.3,0.3c0.8,0.2,1.5,0.5,2,0.8l-1.1,2.5
						c-0.4-0.2-0.8-0.3-1.1-0.4c-0.3-0.1-0.7-0.2-1-0.3c-0.3-0.1-0.7-0.1-1.1-0.1c-0.5,0-1,0.1-1.3,0.4c-0.3,0.2-0.5,0.5-0.5,0.9
						c0,0.3,0.1,0.6,0.4,0.8s0.5,0.5,0.9,0.6c0.4,0.2,0.8,0.4,1.2,0.7c0.5,0.3,1.1,0.6,1.6,1s1,0.7,1.5,1.1c0.4,0.4,0.8,0.8,1.1,1.3
						c0.3,0.5,0.4,1,0.4,1.7c0,0.8-0.2,1.5-0.7,2.2c-0.5,0.6-1.1,1.1-2,1.5s-1.9,0.6-3.1,0.6c-0.4,0-0.7,0-1.2-0.1
						c-0.4-0.1-0.9-0.2-1.3-0.3c-0.4-0.1-0.9-0.2-1.2-0.4c-0.4-0.1-0.7-0.3-1-0.5L486.3,317.9z"/>
					<path class="st8" d="M502.7,316.8h-6l-0.2-2.7h6L502.7,316.8z"/>
				</g>
				<g class="st7">
					<path class="st8" d="M392.5,346.5v-15h9.4l0.4,2.7h-6.4v3.4h4.8l0.4,2.7h-5.1v3.5h6.9l0.4,2.7H392.5z"/>
					<path class="st8" d="M405.2,342.9c0.3,0.1,0.6,0.3,1,0.5c0.4,0.2,0.8,0.3,1.3,0.4s0.9,0.1,1.3,0.1c0.5,0,0.9-0.1,1.3-0.2
						s0.6-0.3,0.8-0.5c0.2-0.2,0.3-0.4,0.3-0.7c0-0.3-0.1-0.5-0.4-0.7c-0.3-0.2-0.6-0.4-1-0.7c-0.4-0.2-0.8-0.5-1.2-0.7
						c-0.5-0.3-1-0.6-1.5-1c-0.5-0.3-1-0.7-1.5-1.1c-0.4-0.4-0.8-0.9-1.1-1.4c-0.3-0.5-0.4-1-0.4-1.6c0-0.8,0.2-1.5,0.6-2.1
						c0.4-0.6,1-1.1,1.8-1.5c0.8-0.4,1.8-0.5,2.9-0.5c0.7,0,1.5,0.1,2.3,0.3c0.8,0.2,1.5,0.5,2,0.8l-1.1,2.5
						c-0.4-0.2-0.8-0.3-1.1-0.4c-0.3-0.1-0.7-0.2-1-0.3s-0.7-0.1-1.1-0.1c-0.5,0-1,0.1-1.3,0.4c-0.3,0.2-0.5,0.5-0.5,0.9
						c0,0.3,0.1,0.6,0.4,0.8c0.2,0.2,0.5,0.5,0.9,0.6c0.4,0.2,0.8,0.4,1.2,0.7c0.5,0.3,1.1,0.6,1.6,1c0.5,0.3,1,0.7,1.5,1.1
						c0.4,0.4,0.8,0.8,1.1,1.3c0.3,0.5,0.4,1,0.4,1.7c0,0.8-0.2,1.5-0.7,2.2s-1.1,1.1-2,1.5s-1.9,0.6-3.1,0.6c-0.4,0-0.7,0-1.2-0.1
						s-0.9-0.2-1.3-0.3c-0.4-0.1-0.9-0.2-1.2-0.4c-0.4-0.1-0.7-0.3-1-0.5L405.2,342.9z"/>
					<path class="st8" d="M416.6,346.5v-15h5.5c1.1,0,2.1,0.2,3,0.5c0.9,0.4,1.6,0.9,2.2,1.7s0.8,1.7,0.8,2.9c0,0.9-0.2,1.6-0.5,2.3
						c-0.3,0.6-0.8,1.2-1.4,1.6c-0.6,0.4-1.3,0.7-2,0.9c-0.7,0.2-1.5,0.3-2.3,0.3H420v4.8H416.6z M420,334.3v4.7h2
						c0.5,0,0.9-0.1,1.3-0.3c0.4-0.2,0.7-0.4,0.9-0.8c0.2-0.3,0.3-0.7,0.3-1.2c0-0.5-0.1-1-0.3-1.4s-0.5-0.6-0.9-0.8
						c-0.4-0.2-0.8-0.3-1.4-0.3H420z"/>
					<path class="st8" d="M430.1,346.5v-15h9.4l0.4,2.7h-6.4v3.4h4.8l0.4,2.7h-5.1v3.5h6.9l0.4,2.7H430.1z"/>
					<path class="st8" d="M453.1,346.5h-10.3v-15h3.4v12.3h6.5L453.1,346.5z"/>
					<path class="st8" d="M463.8,346.5v-6.1h-5.5v6.1h-3.4v-15l3.4-0.1v6.3h5.5v-6.1h3.4v15H463.8z"/>
					<path class="st8" d="M476.9,346.8c-1.5,0-2.9-0.3-4-1s-2-1.6-2.6-2.8c-0.6-1.2-0.9-2.5-0.9-3.9c0-1.6,0.3-2.9,1-4.1
						c0.6-1.2,1.5-2.1,2.7-2.8c1.1-0.7,2.4-1,3.9-1c1.6,0,3,0.3,4.1,1c1.1,0.7,2,1.6,2.6,2.8c0.6,1.2,0.9,2.5,0.9,3.9
						c0,1.5-0.3,2.9-1,4.1c-0.6,1.2-1.5,2.1-2.6,2.8C479.8,346.5,478.4,346.8,476.9,346.8z M476.9,343.9c0.8,0,1.4-0.2,2-0.5
						c0.6-0.4,1.1-0.9,1.4-1.7c0.4-0.7,0.5-1.7,0.5-2.8c0-0.9-0.2-1.7-0.5-2.5s-0.8-1.3-1.4-1.7c-0.6-0.4-1.3-0.6-2.1-0.6
						c-0.7,0-1.4,0.2-2,0.6c-0.6,0.4-1.1,1-1.5,1.7c-0.4,0.7-0.6,1.6-0.6,2.6c0,0.9,0.2,1.8,0.5,2.5s0.8,1.3,1.4,1.7
						C475.4,343.7,476.1,343.9,476.9,343.9z"/>
				</g>
			</g>
		</g>
		<g>
			<g class="st7">
				<path class="st8" d="M4994.9,3288v-15h5.5c1.1,0,2.1,0.2,3,0.5c0.9,0.4,1.6,0.9,2.2,1.7c0.5,0.7,0.8,1.7,0.8,2.9
					c0,0.9-0.2,1.6-0.5,2.3c-0.3,0.6-0.8,1.2-1.4,1.6c-0.6,0.4-1.3,0.7-2,0.9c-0.7,0.2-1.5,0.3-2.3,0.3h-1.9v4.8H4994.9z
					 M4998.3,3275.8v4.7h2c0.5,0,0.9-0.1,1.3-0.3s0.7-0.4,0.9-0.8c0.2-0.3,0.3-0.7,0.3-1.2c0-0.5-0.1-1-0.3-1.4
					c-0.2-0.4-0.5-0.6-0.9-0.8c-0.4-0.2-0.8-0.3-1.4-0.3H4998.3z"/>
				<path class="st8" d="M5013.9,3273c1.1,0,2.1,0.2,3,0.5c0.9,0.3,1.6,0.9,2.2,1.6s0.8,1.6,0.8,2.8c0,0.9-0.2,1.7-0.6,2.4
					c-0.4,0.7-1,1.2-1.6,1.6l3.5,6.2h-3.9l-2.8-5.2c-0.2,0-0.4,0-0.6,0s-0.5,0-0.7,0h-1.3v5.2h-3.4v-15H5013.9z M5011.8,3275.8v4.2
					h2c0.5,0,0.9-0.1,1.3-0.2c0.4-0.2,0.7-0.4,0.9-0.7c0.2-0.3,0.3-0.7,0.3-1.2c0-0.5-0.1-0.9-0.3-1.2c-0.2-0.3-0.5-0.6-0.9-0.7
					s-0.8-0.2-1.4-0.2H5011.8z"/>
				<path class="st8" d="M5030.2,3273l5.7,14.8l-3.4,0.4l-1.2-3.4h-5.4l-1.2,3.2h-3.4l5.7-15H5030.2z M5028.5,3277.4l-1.7,4.6h3.5
					L5028.5,3277.4z M5027.2,3271.3l1.3-3.5h3.5l-2.3,4L5027.2,3271.3z"/>
				<path class="st8" d="M5048.8,3275.7h-4.9v12.3h-3.5v-12.3h-4.5v-2.7h12.5L5048.8,3275.7z"/>
				<path class="st8" d="M5050.6,3288v-15h3.4v15H5050.6z"/>
				<path class="st8" d="M5066.8,3276.2c-0.5-0.2-0.9-0.3-1.2-0.4c-0.3-0.1-0.6-0.1-0.9-0.2s-0.6-0.1-1-0.1c-0.7,0-1.3,0.2-1.9,0.6
					c-0.6,0.4-1.1,1-1.4,1.7s-0.5,1.6-0.5,2.6c0,0.7,0.1,1.4,0.3,2c0.2,0.6,0.5,1.1,0.8,1.5c0.3,0.4,0.7,0.8,1.2,1s1,0.4,1.5,0.4
					c0.6,0,1.1-0.1,1.6-0.2c0.5-0.1,1-0.3,1.4-0.5l1.3,2.6c-0.4,0.2-0.8,0.4-1.3,0.5c-0.5,0.1-1,0.3-1.5,0.3c-0.5,0.1-1,0.1-1.5,0.1
					c-1.2,0-2.3-0.2-3.2-0.6s-1.7-0.9-2.3-1.6c-0.6-0.7-1.1-1.5-1.4-2.5c-0.3-0.9-0.5-2-0.5-3.1c0-1.1,0.2-2.2,0.5-3.2
					c0.4-1,0.9-1.8,1.5-2.5c0.7-0.7,1.5-1.2,2.4-1.6c0.9-0.4,1.9-0.6,3-0.6c0.4,0,0.8,0,1.3,0.1c0.5,0.1,1,0.2,1.5,0.4
					c0.5,0.2,1,0.4,1.4,0.6L5066.8,3276.2z"/>
				<path class="st8" d="M5077,3273l5.7,14.8l-3.4,0.4l-1.2-3.4h-5.4l-1.2,3.2h-3.4l5.7-15H5077z M5075.4,3277.4l-1.7,4.6h3.5
					L5075.4,3277.4z"/>
				<path class="st8" d="M5089.5,3283.3h-6l-0.2-2.7h6L5089.5,3283.3z"/>
			</g>
			<g class="st7">
				<path class="st8" d="M4973,3313v-15h9.4l0.4,2.7h-6.4v3.4h4.8l0.4,2.7h-5.1v3.5h6.9l0.4,2.7H4973z"/>
				<path class="st8" d="M4984.1,3313l5.2-7.5l-4.9-6.9l3.4-1.1l3.6,5.2l3.1-4.8h4l-5.1,7.4l5,7.5h-4.1l-3-4.8l-3.4,4.8H4984.1z"/>
				<path class="st8" d="M5000.3,3313v-15h5.5c1.1,0,2.1,0.2,3,0.5c0.9,0.4,1.6,0.9,2.2,1.7s0.8,1.7,0.8,2.9c0,0.9-0.2,1.6-0.5,2.3
					c-0.3,0.6-0.8,1.2-1.4,1.6s-1.3,0.7-2,0.9c-0.7,0.2-1.5,0.3-2.3,0.3h-1.9v4.8H5000.3z M5003.7,3300.8v4.7h2
					c0.5,0,0.9-0.1,1.3-0.3s0.7-0.4,0.9-0.8c0.2-0.3,0.3-0.7,0.3-1.2c0-0.5-0.1-1-0.3-1.4s-0.5-0.6-0.9-0.8s-0.8-0.3-1.4-0.3H5003.7
					z"/>
				<path class="st8" d="M5013.8,3313v-15h9.4l0.4,2.7h-6.4v3.4h4.8l0.4,2.7h-5.1v3.5h6.9l0.4,2.7H5013.8z"/>
				<path class="st8" d="M5031.9,3298c1.1,0,2.1,0.2,3,0.5c0.9,0.3,1.6,0.9,2.2,1.6s0.8,1.6,0.8,2.8c0,0.9-0.2,1.7-0.6,2.4
					c-0.4,0.7-1,1.2-1.6,1.6l3.5,6.2h-3.9l-2.8-5.2c-0.2,0-0.4,0-0.6,0s-0.5,0-0.7,0h-1.3v5.2h-3.4v-15H5031.9z M5029.9,3300.8v4.2
					h2c0.5,0,0.9-0.1,1.3-0.2c0.4-0.2,0.7-0.4,0.9-0.7c0.2-0.3,0.3-0.7,0.3-1.2c0-0.5-0.1-0.9-0.3-1.2c-0.2-0.3-0.5-0.6-0.9-0.7
					s-0.8-0.2-1.4-0.2H5029.9z"/>
				<path class="st8" d="M5040.9,3313v-15h3.4v15H5040.9z"/>
				<path class="st8" d="M5047.6,3313v-15h9.4l0.4,2.7h-6.4v3.4h4.8l0.4,2.7h-5.1v3.5h6.9l0.4,2.7H5047.6z M5051.5,3296.7l-3.3-0.4
					l3.6-3.6h1.9l3.6,3.6l-3.2,0.4l-1.3-1.4L5051.5,3296.7z"/>
				<path class="st8" d="M5060.3,3313v-15h3.3l5.3,7.6l1.1,1.5l0-9h3.4v15h-3.3l-5.5-7.7l-0.9-1.2v8.9H5060.3z"/>
				<path class="st8" d="M5086.1,3301.2c-0.5-0.2-0.9-0.3-1.2-0.4c-0.3-0.1-0.6-0.1-0.9-0.2s-0.6-0.1-1-0.1c-0.7,0-1.3,0.2-1.9,0.6
					c-0.6,0.4-1.1,1-1.4,1.7c-0.4,0.7-0.5,1.6-0.5,2.6c0,0.7,0.1,1.4,0.3,2s0.5,1.1,0.8,1.5c0.3,0.4,0.7,0.8,1.2,1
					c0.5,0.2,1,0.4,1.5,0.4c0.6,0,1.1-0.1,1.6-0.2c0.5-0.1,1-0.3,1.4-0.5l1.3,2.6c-0.4,0.2-0.8,0.4-1.3,0.5c-0.5,0.1-1,0.3-1.5,0.3
					c-0.5,0.1-1,0.1-1.5,0.1c-1.2,0-2.3-0.2-3.2-0.6c-0.9-0.4-1.7-0.9-2.3-1.6c-0.6-0.7-1.1-1.5-1.4-2.5c-0.3-0.9-0.5-2-0.5-3.1
					c0-1.1,0.2-2.2,0.5-3.2c0.4-1,0.9-1.8,1.5-2.5c0.7-0.7,1.5-1.2,2.4-1.6c0.9-0.4,1.9-0.6,3-0.6c0.4,0,0.8,0,1.3,0.1
					s1,0.2,1.5,0.4c0.5,0.2,1,0.4,1.4,0.6L5086.1,3301.2z"/>
				<path class="st8" d="M5089.1,3313v-15h3.4v15H5089.1z"/>
				<path class="st8" d="M5103.1,3298l5.7,14.8l-3.4,0.4l-1.2-3.4h-5.4l-1.2,3.2h-3.4l5.7-15H5103.1z M5101.5,3302.4l-1.7,4.6h3.5
					L5101.5,3302.4z"/>
			</g>
		</g>
	</g>
</g>
</svg>
